<svg width="24" height="24" viewBox="0 0 24 24" fill="none" xmlns="http://www.w3.org/2000/svg">
<path d="M21.9999 9.25C21.8018 9.25259 21.6125 9.33244 21.4724 9.47253C21.3323 9.61263 21.2525 9.80189 21.2499 10V16L17.0699 11.22C16.8043 10.9373 16.4836 10.7119 16.1276 10.5579C15.7716 10.4039 15.3878 10.3244 14.9999 10.3244C14.612 10.3244 14.2282 10.4039 13.8722 10.5579C13.5161 10.7119 13.1955 10.9373 12.9299 11.22L10.0599 14.5L9.11988 13.36C8.86086 13.0493 8.5367 12.7993 8.17034 12.6277C7.80399 12.4562 7.40441 12.3673 6.99988 12.3673C6.59535 12.3673 6.19577 12.4562 5.82942 12.6277C5.46307 12.7993 5.1389 13.0493 4.87988 13.36L2.74988 15.93V6C2.75252 5.13886 3.09577 4.31374 3.7047 3.70482C4.31362 3.09589 5.13874 2.75264 5.99988 2.75H13.9999C14.1988 2.75 14.3896 2.67098 14.5302 2.53033C14.6709 2.38968 14.7499 2.19891 14.7499 2C14.7499 1.80109 14.6709 1.61032 14.5302 1.46967C14.3896 1.32902 14.1988 1.25 13.9999 1.25H5.99988C4.7401 1.25 3.53192 1.75044 2.64112 2.64124C1.75032 3.53204 1.24988 4.74022 1.24988 6V18C1.24516 18.0163 1.24516 18.0337 1.24988 18.05C1.26305 19.3011 1.7693 20.4965 2.65868 21.3765C3.54805 22.2565 4.74872 22.7501 5.99988 22.75H17.9999C19.2459 22.7475 20.441 22.2555 21.3277 21.3801C22.2144 20.5047 22.7215 19.3159 22.7399 18.07V10C22.7374 9.80359 22.6589 9.61578 22.5209 9.47596C22.383 9.33613 22.1962 9.25515 21.9999 9.25ZM17.9999 21.25H5.99988C5.18299 21.2474 4.39705 20.9373 3.7985 20.3813C3.19996 19.8254 2.83271 19.0645 2.76988 18.25L5.99988 14.32C6.12086 14.1852 6.26887 14.0774 6.43427 14.0036C6.59967 13.9298 6.77876 13.8917 6.95988 13.8917C7.141 13.8917 7.32009 13.9298 7.48549 14.0036C7.65089 14.0774 7.7989 14.1852 7.91988 14.32L9.42988 16.14C9.49913 16.2242 9.58614 16.2921 9.68468 16.3388C9.78321 16.3854 9.89085 16.4098 9.99988 16.41C10.2158 16.3981 10.4193 16.3053 10.5699 16.15L14.0099 12.21C14.1323 12.0811 14.2796 11.9785 14.4429 11.9083C14.6062 11.8382 14.7821 11.802 14.9599 11.802C15.1376 11.802 15.3135 11.8382 15.4768 11.9083C15.6402 11.9785 15.7875 12.0811 15.9099 12.21L21.1799 18.21C21.1297 19.0239 20.7744 19.789 20.1849 20.3524C19.5955 20.9159 18.8152 21.2364 17.9999 21.25Z" fill="url(#paint0_linear_58_135)"/>
<path d="M4.25 7C4.25 7.5439 4.41128 8.07558 4.71346 8.52782C5.01563 8.98005 5.44512 9.33253 5.94762 9.54067C6.45012 9.74881 7.00305 9.80327 7.5365 9.69716C8.06995 9.59105 8.55995 9.32914 8.94454 8.94454C9.32914 8.55995 9.59105 8.06995 9.69716 7.5365C9.80327 7.00305 9.74881 6.45012 9.54067 5.94762C9.33253 5.44512 8.98005 5.01563 8.52782 4.71346C8.07558 4.41128 7.5439 4.25 7 4.25C6.27065 4.25 5.57118 4.53973 5.05546 5.05546C4.53973 5.57118 4.25 6.27065 4.25 7ZM8.25 7C8.25 7.24723 8.17669 7.4889 8.03934 7.69446C7.90199 7.90002 7.70676 8.06024 7.47835 8.15485C7.24995 8.24946 6.99861 8.27421 6.75614 8.22598C6.51366 8.17775 6.29093 8.0587 6.11612 7.88388C5.9413 7.70907 5.82225 7.48634 5.77402 7.24386C5.72579 7.00139 5.75054 6.75005 5.84515 6.52165C5.93976 6.29324 6.09998 6.09801 6.30554 5.96066C6.5111 5.82331 6.75277 5.75 7 5.75C7.33152 5.75 7.64946 5.8817 7.88388 6.11612C8.1183 6.35054 8.25 6.66848 8.25 7Z" fill="url(#paint1_linear_58_135)"/>
<path d="M16 5.75H18.25V8C18.25 8.19891 18.329 8.38968 18.4697 8.53033C18.6103 8.67098 18.8011 8.75 19 8.75C19.1989 8.75 19.3897 8.67098 19.5303 8.53033C19.671 8.38968 19.75 8.19891 19.75 8V5.75H22C22.1989 5.75 22.3897 5.67098 22.5303 5.53033C22.671 5.38968 22.75 5.19891 22.75 5C22.75 4.80109 22.671 4.61032 22.5303 4.46967C22.3897 4.32902 22.1989 4.25 22 4.25H19.75V2C19.75 1.80109 19.671 1.61032 19.5303 1.46967C19.3897 1.32902 19.1989 1.25 19 1.25C18.8011 1.25 18.6103 1.32902 18.4697 1.46967C18.329 1.61032 18.25 1.80109 18.25 2V4.25H16C15.8011 4.25 15.6103 4.32902 15.4697 4.46967C15.329 4.61032 15.25 4.80109 15.25 5C15.25 5.19891 15.329 5.38968 15.4697 5.53033C15.6103 5.67098 15.8011 5.75 16 5.75Z" fill="url(#paint2_linear_58_135)"/>
<defs>
<linearGradient id="paint0_linear_58_135" x1="11.9931" y1="1.25" x2="11.9931" y2="22.75" gradientUnits="userSpaceOnUse">
<stop stop-color="white"/>
<stop offset="1" stop-color="white" stop-opacity="0.75"/>
</linearGradient>
<linearGradient id="paint1_linear_58_135" x1="7" y1="4.25" x2="7" y2="9.75" gradientUnits="userSpaceOnUse">
<stop stop-color="white"/>
<stop offset="1" stop-color="white" stop-opacity="0.75"/>
</linearGradient>
<linearGradient id="paint2_linear_58_135" x1="19" y1="1.25" x2="19" y2="8.75" gradientUnits="userSpaceOnUse">
<stop stop-color="white"/>
<stop offset="1" stop-color="white" stop-opacity="0.75"/>
</linearGradient>
</defs>
</svg>
