<svg width="36" height="36" viewBox="0 0 36 36" fill="none" xmlns="http://www.w3.org/2000/svg">
<circle cx="18" cy="18" r="17.25" fill="#F3F4F7" stroke="#E0E3EB" stroke-width="1.5"/>
<path d="M26.3333 12.83C25.7092 13.1066 25.0471 13.2881 24.3691 13.3683C25.0835 12.9412 25.6181 12.2688 25.8733 11.4766C25.2021 11.8754 24.4676 12.1561 23.7016 12.3066C23.2323 11.807 22.6237 11.4599 21.9547 11.3103C21.2857 11.1608 20.5872 11.2156 19.9497 11.4678C19.3123 11.72 18.7654 12.1579 18.3798 12.7248C17.9942 13.2916 17.7879 13.9611 17.7875 14.6466C17.787 14.9088 17.8163 15.1703 17.875 15.4258C16.5156 15.3576 15.1858 15.0043 13.9718 14.3888C12.7578 13.7733 11.6868 12.9095 10.8283 11.8533C10.391 12.6061 10.257 13.4973 10.4537 14.3453C10.6503 15.1934 11.1627 15.9347 11.8866 16.4183C11.3432 16.4017 10.8117 16.2551 10.3366 15.9908V16.0341C10.3368 16.8237 10.61 17.5889 11.11 18.2C11.61 18.811 12.306 19.2303 13.08 19.3866C12.7864 19.4665 12.4834 19.5066 12.1791 19.5058C11.963 19.5059 11.7473 19.4858 11.535 19.4458C11.7533 20.1251 12.1785 20.7192 12.7511 21.145C13.3236 21.5708 14.0149 21.8071 14.7283 21.8208C13.2945 22.943 11.4745 23.4515 9.66663 23.235C11.23 24.24 13.0497 24.7735 14.9083 24.7716C16.1881 24.7803 17.4569 24.5346 18.6409 24.0488C19.825 23.563 20.9007 22.8468 21.8056 21.9417C22.7106 21.0367 23.4267 19.9609 23.9124 18.7768C24.3981 17.5927 24.6437 16.324 24.635 15.0441C24.635 14.8958 24.6313 14.7486 24.6241 14.6025C25.2946 14.1178 25.8733 13.5176 26.3333 12.83Z" fill="#666666"/>
</svg>
