<svg width="36" height="36" viewBox="0 0 36 36" fill="none" xmlns="http://www.w3.org/2000/svg">
<circle cx="18" cy="18" r="17.25" fill="#F3F4F7" stroke="#E0E3EB" stroke-width="1.5"/>
<path fill-rule="evenodd" clip-rule="evenodd" d="M13.2381 11.3333H22.7619C23.2671 11.3333 23.7516 11.534 24.1088 11.8912C24.466 12.2484 24.6667 12.7329 24.6667 13.2381V22.7619C24.6667 23.2671 24.466 23.7515 24.1088 24.1088C23.7516 24.466 23.2671 24.6666 22.7619 24.6666H13.2381C12.733 24.6666 12.2485 24.466 11.8913 24.1088C11.5341 23.7515 11.3334 23.2671 11.3334 22.7619V13.2381C11.3334 12.7329 11.5341 12.2484 11.8913 11.8912C12.2485 11.534 12.733 11.3333 13.2381 11.3333V11.3333Z" stroke="#666666" stroke-linecap="round" stroke-linejoin="round"/>
<path fill-rule="evenodd" clip-rule="evenodd" d="M13.2381 13.2381H22.7619C23.2671 13.2381 23.7516 13.4388 24.1088 13.796C24.466 14.1532 24.6667 14.6377 24.6667 15.1428V13.2381C24.6667 12.2857 23.8143 11.3333 22.7619 11.3333H13.2381C12.1858 11.3333 11.3334 12.2857 11.3334 13.2381V15.1428C11.3334 14.6377 11.5341 14.1532 11.8913 13.796C12.2485 13.4388 12.733 13.2381 13.2381 13.2381Z" fill="#666666" stroke="#666666" stroke-linecap="round" stroke-linejoin="round"/>
<path d="M15.141 18H16.0934M15.141 16.0952H18.9477M15.141 19.9047H20.8524M15.141 21.8095H18.9477" stroke="#666666" stroke-linecap="round" stroke-linejoin="round"/>
</svg>
