<svg width="36" height="36" viewBox="0 0 36 36" fill="none" xmlns="http://www.w3.org/2000/svg">
<circle cx="18" cy="18" r="17.25" fill="#F3F4F7" stroke="#E0E3EB" stroke-width="1.5"/>
<g clip-path="url(#clip0_126_2070)">
<path d="M22.5443 28C22.4043 28 22.2609 27.9825 22.1193 27.945L9.23343 24.4942C8.35009 24.2509 7.82343 23.3359 8.05509 22.4525L9.68093 16.3925C9.74093 16.17 9.96926 16.0409 10.1909 16.0975C10.4134 16.1567 10.5451 16.3859 10.4859 16.6075L8.86093 22.6659C8.74509 23.1075 9.01009 23.5675 9.45259 23.69L22.3334 27.1392C22.7759 27.2559 23.2326 26.9925 23.3476 26.5525L23.9984 24.1409C24.0584 23.9184 24.2868 23.7859 24.5093 23.8467C24.7318 23.9067 24.8626 24.1359 24.8034 24.3575L24.1534 26.7659C23.9576 27.5075 23.2826 28 22.5443 28Z" fill="#666666"/>
<path d="M26.3333 23H12.9999C12.0808 23 11.3333 22.2525 11.3333 21.3333V11.3333C11.3333 10.4141 12.0808 9.66663 12.9999 9.66663H26.3333C27.2524 9.66663 27.9999 10.4141 27.9999 11.3333V21.3333C27.9999 22.2525 27.2524 23 26.3333 23ZM12.9999 10.5C12.5408 10.5 12.1666 10.8741 12.1666 11.3333V21.3333C12.1666 21.7925 12.5408 22.1666 12.9999 22.1666H26.3333C26.7924 22.1666 27.1666 21.7925 27.1666 21.3333V11.3333C27.1666 10.8741 26.7924 10.5 26.3333 10.5H12.9999Z" fill="#666666"/>
<path d="M15.4999 15.5C14.5808 15.5 13.8333 14.7525 13.8333 13.8333C13.8333 12.9141 14.5808 12.1666 15.4999 12.1666C16.4191 12.1666 17.1666 12.9141 17.1666 13.8333C17.1666 14.7525 16.4191 15.5 15.4999 15.5ZM15.4999 13C15.0408 13 14.6666 13.3741 14.6666 13.8333C14.6666 14.2925 15.0408 14.6666 15.4999 14.6666C15.9591 14.6666 16.3333 14.2925 16.3333 13.8333C16.3333 13.3741 15.9591 13 15.4999 13Z" fill="#666666"/>
<path d="M11.8082 22.1083C11.7016 22.1083 11.5949 22.0675 11.5132 21.9866C11.3507 21.8241 11.3507 21.56 11.5132 21.3975L15.4491 17.4616C15.9207 16.99 16.7449 16.99 17.2166 17.4616L18.3882 18.6333L21.6316 14.7416C21.8674 14.4591 22.2141 14.295 22.5832 14.2916H22.5924C22.9574 14.2916 23.3032 14.45 23.5416 14.7275L27.8999 19.8125C28.0499 19.9866 28.0299 20.25 27.8549 20.4C27.6807 20.55 27.4182 20.5308 27.2674 20.355L22.9091 15.27C22.8282 15.1766 22.7166 15.125 22.5924 15.125C22.5057 15.1175 22.3532 15.1775 22.2724 15.275L18.7366 19.5175C18.6616 19.6075 18.5524 19.6616 18.4349 19.6666C18.3166 19.675 18.2041 19.6283 18.1216 19.545L16.6274 18.0508C16.4699 17.8941 16.1957 17.8941 16.0382 18.0508L12.1024 21.9866C12.0216 22.0675 11.9149 22.1083 11.8082 22.1083Z" fill="#666666"/>
</g>
<defs>
<clipPath id="clip0_126_2070">
<rect width="20" height="20" fill="white" transform="translate(8 8)"/>
</clipPath>
</defs>
</svg>
