<svg width="36" height="36" viewBox="0 0 36 36" fill="none" xmlns="http://www.w3.org/2000/svg">
<circle cx="18" cy="18" r="17.25" fill="#F3F4F7" stroke="#E0E3EB" stroke-width="1.5"/>
<path d="M22.1126 13.0608C22.4003 14.1192 22.4684 15.2252 22.3126 16.3108V16.35C22.3035 16.4717 22.2976 16.5817 22.2926 16.6917C22.375 16.7355 22.4677 16.7563 22.561 16.7517C22.8026 16.73 23.0376 16.6617 23.2535 16.5508C23.35 16.5031 23.4566 16.4791 23.5643 16.4808C23.6807 16.479 23.7963 16.4994 23.9051 16.5408C24.1726 16.6025 24.3718 16.8292 24.3968 17.1025C24.4076 17.4033 24.1368 17.6642 23.5843 17.885C23.5251 17.9042 23.4435 17.9358 23.3543 17.9683C23.0518 18.0592 22.5901 18.2092 22.4601 18.5108C22.4305 18.6082 22.4227 18.711 22.4371 18.8117C22.4515 18.9125 22.4878 19.0089 22.5435 19.0942L22.5535 19.105C22.8462 19.77 23.2883 20.3586 23.8452 20.8253C24.4022 21.2919 25.0591 21.624 25.7651 21.7958C25.8455 21.8086 25.9184 21.8503 25.9701 21.9131C26.0218 21.9758 26.0488 22.0554 26.046 22.1367C26.0451 22.1883 26.035 22.2394 26.016 22.2875C25.8551 22.6683 25.1635 22.9542 23.9076 23.1383C23.8574 23.2615 23.8205 23.3898 23.7976 23.5208C23.7768 23.6458 23.7476 23.77 23.7085 23.8908C23.6897 23.9732 23.6417 24.0461 23.5733 24.0959C23.505 24.1456 23.421 24.169 23.3368 24.1617H23.3168C23.1953 24.1561 23.0745 24.1396 22.956 24.1125C22.4748 24.0093 21.9787 23.9957 21.4926 24.0725C21.0692 24.1834 20.675 24.3853 20.3376 24.6642C19.7165 25.1865 18.9394 25.4875 18.1285 25.52C18.0885 25.52 18.0451 25.51 18.0068 25.51H17.906C17.0978 25.4793 16.3242 25.1749 15.7118 24.6467C15.3783 24.3678 14.9878 24.1656 14.5676 24.0542C14.362 24.0235 14.1546 24.0068 13.9468 24.0042C13.66 24.0084 13.3743 24.0419 13.0943 24.1042C12.9753 24.1322 12.8539 24.1487 12.7318 24.1533C12.6439 24.1598 12.5566 24.1353 12.485 24.084C12.4134 24.0326 12.3621 23.9578 12.3401 23.8725C12.3001 23.7442 12.281 23.6117 12.251 23.4925C12.2275 23.3617 12.1904 23.2338 12.1401 23.1108C10.8543 22.9617 10.1626 22.68 10.0026 22.2892C9.97646 22.2422 9.96203 22.1897 9.96057 22.1359C9.95911 22.0822 9.97066 22.029 9.99423 21.9807C10.0178 21.9324 10.0527 21.8905 10.096 21.8586C10.1392 21.8267 10.1895 21.8057 10.2426 21.7975C10.9489 21.6256 11.6061 21.2932 12.1631 20.8261C12.7201 20.359 13.162 19.7697 13.4543 19.1042L13.4618 19.0833C13.5194 18.999 13.557 18.9025 13.5714 18.8014C13.5859 18.7002 13.5769 18.5971 13.5451 18.5C13.4151 18.2092 12.9526 18.0592 12.6535 17.9583C12.5737 17.9371 12.496 17.9093 12.421 17.875C11.6793 17.5833 11.5785 17.2517 11.6193 17.0217C11.6769 16.8623 11.784 16.7257 11.925 16.6318C12.066 16.5379 12.2334 16.4917 12.4026 16.5C12.491 16.5 12.5776 16.5167 12.6593 16.55C12.8893 16.6683 13.141 16.7367 13.3993 16.7508C13.5076 16.7542 13.616 16.7283 13.7118 16.6767L13.6776 16.295C13.5225 15.2123 13.5909 14.1094 13.8785 13.0542C14.2091 12.2873 14.7602 11.636 15.4617 11.1829C16.1632 10.7297 16.9835 10.4952 17.8185 10.5092L18.0976 10.5H18.1385C18.979 10.49 19.804 10.7274 20.5107 11.1827C21.2173 11.6381 21.7744 12.2912 22.1126 13.0608Z" fill="#666666"/>
</svg>
