<svg width="36" height="36" viewBox="0 0 36 36" fill="none" xmlns="http://www.w3.org/2000/svg">
<circle cx="18" cy="18" r="17.25" fill="#F3F4F7" stroke="#E0E3EB" stroke-width="1.5"/>
<g clip-path="url(#clip0_126_2085)">
<path d="M24.2501 28H11.7501C10.6017 28 9.66675 27.065 9.66675 25.9167V10.0833C9.66675 8.935 10.6017 8 11.7501 8H24.2501C25.3984 8 26.3334 8.935 26.3334 10.0833V25.9167C26.3334 27.065 25.3984 28 24.2501 28ZM11.7501 8.83333C11.0609 8.83333 10.5001 9.39417 10.5001 10.0833V25.9167C10.5001 26.6058 11.0609 27.1667 11.7501 27.1667H24.2501C24.9392 27.1667 25.5001 26.6058 25.5001 25.9167V10.0833C25.5001 9.39417 24.9392 8.83333 24.2501 8.83333H11.7501Z" fill="#666666"/>
<path d="M17.5834 16.3333C17.3534 16.3333 17.1667 16.1466 17.1667 15.9166V15.5H13.0001V15.9166C13.0001 16.1466 12.8134 16.3333 12.5834 16.3333C12.3534 16.3333 12.1667 16.1466 12.1667 15.9166V15.0833C12.1667 14.8533 12.3534 14.6666 12.5834 14.6666H17.5834C17.8134 14.6666 18.0001 14.8533 18.0001 15.0833V15.9166C18.0001 16.1466 17.8134 16.3333 17.5834 16.3333Z" fill="#666666"/>
<path d="M15.0834 20.5C14.8534 20.5 14.6667 20.3133 14.6667 20.0833V15.0833C14.6667 14.8533 14.8534 14.6666 15.0834 14.6666C15.3134 14.6666 15.5001 14.8533 15.5001 15.0833V20.0833C15.5001 20.3133 15.3134 20.5 15.0834 20.5Z" fill="#666666"/>
<path d="M15.9166 20.5H14.2499C14.0199 20.5 13.8333 20.3133 13.8333 20.0833C13.8333 19.8533 14.0199 19.6666 14.2499 19.6666H15.9166C16.1466 19.6666 16.3333 19.8533 16.3333 20.0833C16.3333 20.3133 16.1466 20.5 15.9166 20.5Z" fill="#666666"/>
<path d="M23.4167 15.5H20.0834C19.8534 15.5 19.6667 15.3133 19.6667 15.0833C19.6667 14.8533 19.8534 14.6666 20.0834 14.6666H23.4167C23.6467 14.6666 23.8334 14.8533 23.8334 15.0833C23.8334 15.3133 23.6467 15.5 23.4167 15.5Z" fill="#666666"/>
<path d="M23.4167 18H20.0834C19.8534 18 19.6667 17.8133 19.6667 17.5833C19.6667 17.3533 19.8534 17.1666 20.0834 17.1666H23.4167C23.6467 17.1666 23.8334 17.3533 23.8334 17.5833C23.8334 17.8133 23.6467 18 23.4167 18Z" fill="#666666"/>
<path d="M23.4167 20.5H20.0834C19.8534 20.5 19.6667 20.3133 19.6667 20.0833C19.6667 19.8533 19.8534 19.6666 20.0834 19.6666H23.4167C23.6467 19.6666 23.8334 19.8533 23.8334 20.0833C23.8334 20.3133 23.6467 20.5 23.4167 20.5Z" fill="#666666"/>
<path d="M23.4167 23H12.5834C12.3534 23 12.1667 22.8133 12.1667 22.5833C12.1667 22.3533 12.3534 22.1666 12.5834 22.1666H23.4167C23.6467 22.1666 23.8334 22.3533 23.8334 22.5833C23.8334 22.8133 23.6467 23 23.4167 23Z" fill="#666666"/>
<path d="M23.4167 25.5H12.5834C12.3534 25.5 12.1667 25.3133 12.1667 25.0833C12.1667 24.8533 12.3534 24.6666 12.5834 24.6666H23.4167C23.6467 24.6666 23.8334 24.8533 23.8334 25.0833C23.8334 25.3133 23.6467 25.5 23.4167 25.5Z" fill="#666666"/>
</g>
<defs>
<clipPath id="clip0_126_2085">
<rect width="20" height="20" fill="white" transform="translate(8 8)"/>
</clipPath>
</defs>
</svg>
