<svg width="36" height="36" viewBox="0 0 36 36" fill="none" xmlns="http://www.w3.org/2000/svg">
<circle cx="18" cy="18" r="17.25" fill="#F3F4F7" stroke="#E0E3EB" stroke-width="1.5"/>
<path d="M26.3812 13.7875C26.2816 13.4175 26.0866 13.0802 25.8157 12.8093C25.5448 12.5383 25.2075 12.3433 24.8375 12.2438C23.475 11.875 18 11.875 18 11.875C18 11.875 12.525 11.875 11.1625 12.2438C10.7925 12.3433 10.4552 12.5383 10.1843 12.8093C9.91333 13.0802 9.71832 13.4175 9.61873 13.7875C9.36432 15.177 9.24087 16.5874 9.24998 18C9.24087 19.4126 9.36432 20.823 9.61873 22.2125C9.71832 22.5825 9.91333 22.9198 10.1843 23.1907C10.4552 23.4617 10.7925 23.6567 11.1625 23.7562C12.525 24.125 18 24.125 18 24.125C18 24.125 23.475 24.125 24.8375 23.7562C25.2075 23.6567 25.5448 23.4617 25.8157 23.1907C26.0866 22.9198 26.2816 22.5825 26.3812 22.2125C26.6356 20.823 26.7591 19.4126 26.75 18C26.7591 16.5874 26.6356 15.177 26.3812 13.7875ZM16.25 20.625V15.375L20.7937 18L16.25 20.625Z" fill="#666666"/>
</svg>
