<svg width="36" height="36" viewBox="0 0 36 36" fill="none" xmlns="http://www.w3.org/2000/svg">
<circle cx="18" cy="18" r="17.25" fill="#F3F4F7" stroke="#E0E3EB" stroke-width="1.5"/>
<g clip-path="url(#clip0_126_2343)">
<path d="M24.6666 18V26.3333H11.3333V18" stroke="#666666" stroke-width="1.5" stroke-linecap="round" stroke-linejoin="round"/>
<path d="M26.3334 13.8333H9.66675V18H26.3334V13.8333Z" stroke="#666666" stroke-width="1.5" stroke-linecap="round" stroke-linejoin="round"/>
<path d="M18 26.3333V13.8333" stroke="#666666" stroke-width="1.5" stroke-linecap="round" stroke-linejoin="round"/>
<path d="M18.0001 13.8334H14.2501C13.6975 13.8334 13.1676 13.6139 12.7769 13.2232C12.3862 12.8325 12.1667 12.3026 12.1667 11.75C12.1667 11.1975 12.3862 10.6676 12.7769 10.2769C13.1676 9.88618 13.6975 9.66669 14.2501 9.66669C17.1667 9.66669 18.0001 13.8334 18.0001 13.8334Z" stroke="#666666" stroke-width="1.5" stroke-linecap="round" stroke-linejoin="round"/>
<path d="M18 13.8334H21.75C22.3025 13.8334 22.8324 13.6139 23.2231 13.2232C23.6138 12.8325 23.8333 12.3026 23.8333 11.75C23.8333 11.1975 23.6138 10.6676 23.2231 10.2769C22.8324 9.88618 22.3025 9.66669 21.75 9.66669C18.8333 9.66669 18 13.8334 18 13.8334Z" stroke="#666666" stroke-width="1.5" stroke-linecap="round" stroke-linejoin="round"/>
</g>
<defs>
<clipPath id="clip0_126_2343">
<rect width="20" height="20" fill="white" transform="translate(8 8)"/>
</clipPath>
</defs>
</svg>
