<svg width="36" height="36" viewBox="0 0 36 36" fill="none" xmlns="http://www.w3.org/2000/svg">
<circle cx="18" cy="18" r="17.25" fill="#F3F4F7" stroke="#E0E3EB" stroke-width="1.5"/>
<path d="M20.5 18C20.5 18.4945 20.3534 18.9778 20.0787 19.3889C19.804 19.8 19.4135 20.1205 18.9567 20.3097C18.4999 20.4989 17.9972 20.5484 17.5123 20.452C17.0273 20.3555 16.5819 20.1174 16.2322 19.7678C15.8826 19.4181 15.6445 18.9727 15.548 18.4877C15.4516 18.0028 15.5011 17.5001 15.6903 17.0433C15.8795 16.5865 16.2 16.196 16.6111 15.9213C17.0222 15.6466 17.5055 15.5 18 15.5C18.6624 15.5021 19.2971 15.7661 19.7655 16.2345C20.2339 16.7029 20.4979 17.3376 20.5 18ZM25.8125 14.5625V21.4375C25.8125 22.5978 25.3516 23.7106 24.5311 24.5311C23.7106 25.3516 22.5978 25.8125 21.4375 25.8125H14.5625C13.4022 25.8125 12.2894 25.3516 11.4689 24.5311C10.6484 23.7106 10.1875 22.5978 10.1875 21.4375V14.5625C10.1875 13.4022 10.6484 12.2894 11.4689 11.4689C12.2894 10.6484 13.4022 10.1875 14.5625 10.1875H21.4375C22.5978 10.1875 23.7106 10.6484 24.5311 11.4689C25.3516 12.2894 25.8125 13.4022 25.8125 14.5625ZM21.75 18C21.75 17.2583 21.5301 16.5333 21.118 15.9166C20.706 15.2999 20.1203 14.8193 19.4351 14.5355C18.7498 14.2516 17.9958 14.1774 17.2684 14.3221C16.541 14.4668 15.8728 14.8239 15.3483 15.3483C14.8239 15.8728 14.4668 16.541 14.3221 17.2684C14.1774 17.9958 14.2516 18.7498 14.5355 19.4351C14.8193 20.1203 15.2999 20.706 15.9166 21.118C16.5333 21.5301 17.2583 21.75 18 21.75C18.9946 21.75 19.9484 21.3549 20.6517 20.6517C21.3549 19.9484 21.75 18.9946 21.75 18ZM23 13.9375C23 13.7521 22.945 13.5708 22.842 13.4167C22.739 13.2625 22.5926 13.1423 22.4213 13.0714C22.25 13.0004 22.0615 12.9818 21.8796 13.018C21.6977 13.0542 21.5307 13.1435 21.3996 13.2746C21.2685 13.4057 21.1792 13.5727 21.143 13.7546C21.1068 13.9365 21.1254 14.125 21.1964 14.2963C21.2673 14.4676 21.3875 14.614 21.5417 14.717C21.6958 14.82 21.8771 14.875 22.0625 14.875C22.3111 14.875 22.5496 14.7762 22.7254 14.6004C22.9012 14.4246 23 14.1861 23 13.9375Z" fill="#666666"/>
</svg>
