<svg width="36" height="36" viewBox="0 0 36 36" fill="none" xmlns="http://www.w3.org/2000/svg">
<circle cx="18" cy="18" r="17.25" fill="#F3F4F7" stroke="#E0E3EB" stroke-width="1.5"/>
<g clip-path="url(#clip0_126_2048)">
<path d="M26.9998 16.6666H25.6665C25.4825 16.6666 25.3333 16.8159 25.3333 16.9999C25.3333 17.1841 25.4825 17.3333 25.6665 17.3333H26.9998C27.184 17.3333 27.3332 17.4825 27.3332 17.6665V21C27.3332 21.184 27.184 21.3332 26.9998 21.3332H25.6665C25.4825 21.3332 25.3333 21.4825 25.3333 21.6666C25.3333 21.8506 25.4825 21.9999 25.6665 21.9999H26.9998C27.5522 21.9999 27.9999 21.5522 27.9999 21V17.6665C27.9999 17.1143 27.5522 16.6666 26.9998 16.6666Z" fill="#666666"/>
<path d="M9.00006 21.9999H13C13.184 21.9999 13.3334 21.8507 13.3334 21.6667C13.3334 21.4825 13.184 21.3333 13 21.3333H9.00006C8.81589 21.3333 8.66666 21.184 8.66666 21V17.6666C8.66666 17.4825 8.81589 17.3333 9.00006 17.3333H13C13.184 17.3333 13.3334 17.1841 13.3334 16.9999C13.3334 16.8159 13.184 16.6667 13 16.6667H10.3334V16.3333C10.3334 16.1492 10.1841 16 9.99997 16C9.81595 16 9.66672 16.1492 9.66672 16.3333V16.6667H9.00006C8.44769 16.6667 8 17.1143 8 17.6666V21C8 21.5522 8.44769 21.9999 9.00006 21.9999Z" fill="#666666"/>
<path d="M19.3333 15C16.9402 15 15 16.9402 15 19.3333C15 21.7265 16.9402 23.6667 19.3333 23.6667C21.7265 23.6667 23.6667 21.7265 23.6667 19.3333C23.6639 16.9412 21.7255 15.0027 19.3333 15ZM19.3333 23C17.3083 23 15.6667 21.3583 15.6667 19.3333C15.6667 17.3083 17.3083 15.6667 19.3333 15.6667C21.3583 15.6667 23 17.3083 23 19.3333C22.9976 21.3574 21.3574 22.9976 19.3333 23Z" fill="#666666"/>
<path d="M9.66675 18.3334V20.3334C9.66675 20.5174 9.81598 20.6666 10 20.6666C10.1842 20.6666 10.3334 20.5174 10.3334 20.3334V18.3334C10.3334 18.1492 10.1842 18 10 18C9.81598 18 9.66675 18.1492 9.66675 18.3334Z" fill="#666666"/>
<path d="M24.9 23.3121C24.7694 23.1843 24.5605 23.1856 24.4313 23.3146L24.1087 23.6371L23.5693 23.0977C23.5673 23.0954 23.5643 23.0951 23.562 23.0926C25.6073 20.7937 25.4536 17.2853 23.2153 15.1739C20.977 13.0626 17.4656 13.1137 15.2899 15.2894C13.1141 17.4652 13.0629 20.9767 15.1742 23.215C17.2856 25.4533 20.794 25.6068 23.0929 23.5617C23.0954 23.564 23.0957 23.567 23.098 23.569L23.6374 24.1084L23.2527 24.4931C23.1897 24.5561 23.1546 24.6417 23.155 24.7308C23.1556 24.8199 23.1918 24.9051 23.2557 24.9673L26.0087 27.6584C26.3038 27.9526 26.7337 28.067 27.1362 27.9585C27.5386 27.85 27.8526 27.5349 27.9597 27.1321C28.067 26.7294 27.9512 26.2999 27.6561 26.0057L24.9 23.3121ZM19.3333 24.3333C16.5719 24.3333 14.3333 22.0947 14.3333 19.3333C14.3333 16.5719 16.5719 14.3333 19.3333 14.3333C22.0947 14.3333 24.3333 16.5719 24.3333 19.3333C24.3303 22.0935 22.0935 24.3303 19.3333 24.3333ZM24.6693 24.019L26.6113 25.919L25.9044 26.626L23.9624 24.7276L24.6693 24.019ZM27.187 27.1856C27.0927 27.2798 26.9648 27.3324 26.8315 27.332C26.6983 27.3314 26.5709 27.2777 26.4773 27.1828L26.381 27.0891L27.088 26.382L27.1879 26.4787C27.3829 26.6739 27.3829 26.9902 27.1879 27.1853L27.187 27.1856Z" fill="#666666"/>
<path d="M21.8157 18.0349C21.7367 17.9954 21.6451 17.989 21.5612 18.0169C21.4773 18.045 21.408 18.1051 21.3685 18.1843L20.3771 20.1665L19.6458 18.216C19.5971 18.0855 19.4726 17.999 19.3334 17.999C19.1942 17.999 19.0697 18.0855 19.0211 18.216L18.2897 20.1665L17.3 18.1843C17.2178 18.0195 17.0176 17.9526 16.8528 18.0349C16.688 18.1173 16.6212 18.3175 16.7034 18.4823L18.0367 21.1489C18.0952 21.2684 18.2197 21.341 18.3524 21.3329C18.485 21.326 18.6008 21.2412 18.6474 21.117L19.3334 19.2826L20.0211 21.1159C20.0677 21.2403 20.1835 21.3251 20.3161 21.332H20.3335C20.4604 21.3326 20.5767 21.2612 20.6335 21.1477L21.9668 18.4809C22.0479 18.3161 21.9805 18.1165 21.8157 18.0349Z" fill="#666666"/>
<path d="M8.66666 9.99997H13.6667C14.0349 9.99997 14.3333 9.70151 14.3333 9.33331V8.66666C14.3333 8.29846 14.0349 8 13.6667 8H8.66666C8.29846 8 8 8.29846 8 8.66666V9.33331C8 9.70151 8.29846 9.99997 8.66666 9.99997ZM8.66666 8.66666H13.6667V9.33331H8.66666V8.66666Z" fill="#666666"/>
<path d="M17.3333 11.3333V11.9999C17.3333 12.3681 17.6317 12.6666 17.9999 12.6666H22.9999C23.3681 12.6666 23.6666 12.3681 23.6666 11.9999V11.3333C23.6666 10.9651 23.3681 10.6666 22.9999 10.6666H17.9999C17.6317 10.6666 17.3333 10.9651 17.3333 11.3333ZM22.9999 11.9999H17.9999V11.3333H22.9999V11.9999Z" fill="#666666"/>
<path d="M15.6667 9.99997H18.3334C18.7016 9.99997 19.0001 9.70151 19.0001 9.33331V8.66666C19.0001 8.29846 18.7016 8 18.3334 8H15.6667C15.2985 8 15 8.29846 15 8.66666V9.33331C15 9.70151 15.2985 9.99997 15.6667 9.99997ZM15.6667 8.66666H18.3334V9.33331H15.6667V8.66666Z" fill="#666666"/>
<path d="M13.3333 10.6666C12.9651 10.6666 12.6665 10.9651 12.6665 11.3333V11.9999C12.6665 12.3681 12.9651 12.6666 13.3333 12.6666H15.9999C16.3681 12.6666 16.6666 12.3681 16.6666 11.9999V11.3333C16.6666 10.9651 16.3681 10.6666 15.9999 10.6666H13.3333ZM13.3333 11.9999V11.3333H15.9999V11.9999H13.3333Z" fill="#666666"/>
<path d="M8.66666 12.6666H9.66672V13C9.66672 13.184 9.81595 13.3334 9.99997 13.3334C10.1841 13.3334 10.3334 13.184 10.3334 13V12.6666H11.3333C11.7015 12.6666 11.9999 12.3681 11.9999 11.9999V11.3333C11.9999 10.9651 11.7015 10.6666 11.3333 10.6666H8.66666C8.29846 10.6666 8 10.9651 8 11.3333V11.9999C8 12.3681 8.29846 12.6666 8.66666 12.6666ZM8.66666 11.3333H11.3333V11.9999H8.66666V11.3333Z" fill="#666666"/>
<path d="M20.3334 9.99997H21.6667C22.0349 9.99997 22.3334 9.70151 22.3334 9.33331V8.66666C22.3334 8.29846 22.0349 8 21.6667 8H20.3334C19.9652 8 19.6667 8.29846 19.6667 8.66666V9.33331C19.6667 9.70151 19.9652 9.99997 20.3334 9.99997ZM20.3334 8.66666H21.6667V9.33331H20.3334V8.66666Z" fill="#666666"/>
<path d="M27.3333 10.6666H24.9999C24.6317 10.6666 24.3333 10.9651 24.3333 11.3333V11.9999C24.3333 12.3681 24.6317 12.6666 24.9999 12.6666H27.3333C27.7015 12.6666 27.9999 12.3681 27.9999 11.9999V11.3333C27.9999 10.9651 27.7015 10.6666 27.3333 10.6666ZM24.9999 11.9999V11.3333H27.3333V11.9999H24.9999Z" fill="#666666"/>
<path d="M27.3333 8H23.6667C23.2985 8 23 8.29846 23 8.66666V9.33331C23 9.70151 23.2985 9.99997 23.6667 9.99997H27.3333C27.7015 9.99997 28 9.70151 28 9.33331V8.66666C28 8.29846 27.7015 8 27.3333 8ZM23.6667 9.33331V8.66666H27.3333V9.33331H23.6667Z" fill="#666666"/>
<path d="M10 14C9.81598 14 9.66675 14.1492 9.66675 14.3333V14.9999C9.66675 15.1841 9.81598 15.3333 10 15.3333C10.1842 15.3333 10.3334 15.1841 10.3334 14.9999V14.3333C10.3334 14.1492 10.1842 14 10 14Z" fill="#666666"/>
</g>
<defs>
<clipPath id="clip0_126_2048">
<rect width="20" height="20" fill="white" transform="translate(8 8)"/>
</clipPath>
</defs>
</svg>
