<svg width="36" height="36" viewBox="0 0 36 36" fill="none" xmlns="http://www.w3.org/2000/svg">
<circle cx="18" cy="18" r="17.25" fill="#F3F4F7" stroke="#E0E3EB" stroke-width="1.5"/>
<path d="M20.835 25.5V19.695H22.7792L23.07 17.4383H20.835V15.9983C20.835 15.345 21.0167 14.8992 21.9533 14.8992H23.1483V12.8808C22.5698 12.8195 21.9884 12.7897 21.4067 12.7917C19.6842 12.7917 18.505 13.8433 18.505 15.775V17.4383H16.5567V19.695H18.505V25.5H11.3333C11.1123 25.5 10.9004 25.4122 10.7441 25.2559C10.5878 25.0996 10.5 24.8877 10.5 24.6667V11.3333C10.5 11.1123 10.5878 10.9004 10.7441 10.7441C10.9004 10.5878 11.1123 10.5 11.3333 10.5H24.6667C24.8877 10.5 25.0996 10.5878 25.2559 10.7441C25.4122 10.9004 25.5 11.1123 25.5 11.3333V24.6667C25.5 24.8877 25.4122 25.0996 25.2559 25.2559C25.0996 25.4122 24.8877 25.5 24.6667 25.5H20.835Z" fill="#666666"/>
</svg>
