<svg width="36" height="36" viewBox="0 0 36 36" fill="none" xmlns="http://www.w3.org/2000/svg">
<circle cx="18" cy="18" r="17.25" fill="#F3F4F7" stroke="#E0E3EB" stroke-width="1.5"/>
<path d="M17.1666 24.6666H13.4166C12.1499 24.6666 11.0694 24.2305 10.1749 23.3583C9.28047 22.4805 8.83325 21.4111 8.83325 20.15C8.83325 19.0666 9.15825 18.1 9.80825 17.25C10.4638 16.4 11.3194 15.8583 12.3749 15.625C12.7249 14.3472 13.4194 13.3139 14.4583 12.525C15.5027 11.7305 16.6833 11.3333 17.9999 11.3333C19.6277 11.3333 21.0055 11.9 22.1333 13.0333C23.2666 14.1611 23.8333 15.5389 23.8333 17.1666C24.7944 17.2778 25.5888 17.6944 26.2166 18.4166C26.8499 19.1278 27.1666 19.9611 27.1666 20.9166C27.1666 21.9611 26.8027 22.8472 26.0749 23.575C25.3471 24.3028 24.461 24.6666 23.4166 24.6666H18.8333V18.7083L20.1666 20L21.3333 18.8333L17.9999 15.5L14.6666 18.8333L15.8333 20L17.1666 18.7083V24.6666Z" fill="#666666"/>
</svg>
