<svg width="36" height="36" viewBox="0 0 36 36" fill="none" xmlns="http://www.w3.org/2000/svg">
<circle cx="18" cy="18" r="17.25" fill="#F3F4F7" stroke="#E0E3EB" stroke-width="1.5"/>
<path d="M24.375 10.5H11.625C11 10.5 10.5 11 10.5 11.5625V24.375C10.5 24.9375 11 25.4375 11.625 25.4375H24.375C25 25.4375 25.5 24.9375 25.5 24.375V11.5625C25.5 11 25 10.5 24.375 10.5ZM14.9375 23.25H12.75V16.125H14.9375V23.25ZM13.875 15.125C13.1875 15.125 12.5625 14.5625 12.5625 13.8125C12.5625 13.0625 13.125 12.5 13.875 12.5C14.5625 12.5 15.1875 13.0625 15.1875 13.8125C15.1875 14.5625 14.5625 15.125 13.875 15.125ZM23.3125 23.1875H21.125V19.6875C21.125 18.875 21.125 17.75 19.9375 17.75C18.75 17.75 18.625 18.6875 18.625 19.5625V23.125H16.4375V16.125H18.5V17.0625H18.5625C18.875 16.5 19.625 15.875 20.6875 15.875C22.9375 15.875 23.375 17.375 23.375 19.3125V23.1875H23.3125Z" fill="#666666"/>
</svg>
