<svg width="36" height="36" viewBox="0 0 36 36" fill="none" xmlns="http://www.w3.org/2000/svg">
<circle cx="18" cy="18" r="17.25" fill="#F3F4F7" stroke="#E0E3EB" stroke-width="1.5"/>
<path d="M25.7919 17.25H18.1502V19.525H23.5752C23.3002 22.7 20.6586 24.0584 18.1586 24.0584C14.9669 24.0584 12.1669 21.5417 12.1669 18C12.1669 14.5834 14.8336 11.9417 18.1669 11.9417C20.7419 11.9417 22.2502 13.5834 22.2502 13.5834L23.8336 11.9334C23.8336 11.9334 21.8002 9.66669 18.0836 9.66669C13.3502 9.66669 9.69189 13.6667 9.69189 18C9.69189 22.2084 13.1336 26.3334 18.2086 26.3334C22.6669 26.3334 25.9169 23.275 25.9169 18.7584C25.9169 17.8 25.7919 17.25 25.7919 17.25Z" fill="#666666"/>
</svg>
