<svg width="36" height="36" viewBox="0 0 36 36" fill="none" xmlns="http://www.w3.org/2000/svg">
<circle cx="18" cy="18" r="17.25" fill="#F3F4F7" stroke="#E0E3EB" stroke-width="1.5"/>
<path fill-rule="evenodd" clip-rule="evenodd" d="M22.375 14.25V21.75C22.375 22.9103 21.9141 24.0231 21.0936 24.8436C20.2731 25.6641 19.1603 26.125 18 26.125C16.8397 26.125 15.7269 25.6641 14.9064 24.8436C14.0859 24.0231 13.625 22.9103 13.625 21.75V14.25C13.625 13.0897 14.0859 11.9769 14.9064 11.1564C15.7269 10.3359 16.8397 9.875 18 9.875C19.1603 9.875 20.2731 10.3359 21.0936 11.1564C21.9141 11.9769 22.375 13.0897 22.375 14.25ZM11.75 14.25C11.75 12.5924 12.4085 11.0027 13.5806 9.83058C14.7527 8.65848 16.3424 8 18 8C19.6576 8 21.2473 8.65848 22.4194 9.83058C23.5915 11.0027 24.25 12.5924 24.25 14.25V21.75C24.25 23.4076 23.5915 24.9973 22.4194 26.1694C21.2473 27.3415 19.6576 28 18 28C16.3424 28 14.7527 27.3415 13.5806 26.1694C12.4085 24.9973 11.75 23.4076 11.75 21.75V14.25ZM18 24.25C18.663 24.25 19.2989 23.9866 19.7678 23.5178C20.2366 23.0489 20.5 22.413 20.5 21.75C20.5 21.087 20.2366 20.4511 19.7678 19.9822C19.2989 19.5134 18.663 19.25 18 19.25C17.337 19.25 16.7011 19.5134 16.2322 19.9822C15.7634 20.4511 15.5 21.087 15.5 21.75C15.5 22.413 15.7634 23.0489 16.2322 23.5178C16.7011 23.9866 17.337 24.25 18 24.25Z" fill="#666666"/>
</svg>
