<svg width="36" height="36" viewBox="0 0 36 36" fill="none" xmlns="http://www.w3.org/2000/svg">
<circle cx="18" cy="18" r="17.25" fill="#F3F4F7" stroke="#E0E3EB" stroke-width="1.5"/>
<path fill-rule="evenodd" clip-rule="evenodd" d="M24.3334 16.6667C24.3334 17.2795 24.2127 17.8864 23.9781 18.4526C23.7436 19.0187 23.3999 19.5332 22.9665 19.9665C22.5332 20.3999 22.0187 20.7436 21.4526 20.9781C20.8864 21.2127 20.2795 21.3334 19.6667 21.3334C19.0539 21.3334 18.447 21.2127 17.8808 20.9781C17.3147 20.7436 16.8002 20.3999 16.3669 19.9665C15.9335 19.5332 15.5898 19.0187 15.3553 18.4526C15.1207 17.8864 15 17.2795 15 16.6667C15 15.429 15.4917 14.242 16.3669 13.3669C17.242 12.4917 18.429 12 19.6667 12C20.9044 12 22.0914 12.4917 22.9665 13.3669C23.8417 14.242 24.3334 15.429 24.3334 16.6667ZM23.412 21.3547C22.2139 22.3119 20.6948 22.774 19.1666 22.6461C17.6384 22.5182 16.2172 21.81 15.1949 20.667C14.1725 19.524 13.6266 18.0329 13.6693 16.5C13.712 14.9671 14.34 13.5087 15.4244 12.4244C16.5087 11.34 17.9671 10.712 19.5 10.6693C21.0329 10.6266 22.524 11.1725 23.667 12.1949C24.81 13.2172 25.5182 14.6384 25.6461 16.1666C25.774 17.6948 25.3119 19.2139 24.3547 20.412L28.1387 24.1947C28.2007 24.2567 28.2499 24.3303 28.2834 24.4113C28.317 24.4922 28.3342 24.579 28.3342 24.6667C28.3342 24.7544 28.317 24.8412 28.2834 24.9222C28.2499 25.0031 28.2007 25.0767 28.1387 25.1387C28.0767 25.2007 28.0031 25.2499 27.9222 25.2834C27.8412 25.317 27.7544 25.3342 27.6667 25.3342C27.579 25.3342 27.4922 25.317 27.4113 25.2834C27.3303 25.2499 27.2567 25.2007 27.1947 25.1387L23.4134 21.3547H23.412Z" fill="#666666"/>
<rect x="11" y="13" width="10" height="8" fill="#F3F4F7"/>
<path d="M7.432 20.056C7.05867 20.056 6.72267 19.992 6.424 19.864C6.12533 19.7307 5.89067 19.544 5.72 19.304C5.54933 19.064 5.464 18.784 5.464 18.464H6.44C6.46133 18.704 6.55467 18.9013 6.72 19.056C6.89067 19.2107 7.128 19.288 7.432 19.288C7.74667 19.288 7.992 19.2133 8.168 19.064C8.344 18.9093 8.432 18.712 8.432 18.472C8.432 18.2853 8.376 18.1333 8.264 18.016C8.15733 17.8987 8.02133 17.808 7.856 17.744C7.696 17.68 7.472 17.6107 7.184 17.536C6.82133 17.44 6.52533 17.344 6.296 17.248C6.072 17.1467 5.88 16.992 5.72 16.784C5.56 16.576 5.48 16.2987 5.48 15.952C5.48 15.632 5.56 15.352 5.72 15.112C5.88 14.872 6.104 14.688 6.392 14.56C6.68 14.432 7.01333 14.368 7.392 14.368C7.93067 14.368 8.37067 14.504 8.712 14.776C9.05867 15.0427 9.25067 15.4107 9.288 15.88H8.28C8.264 15.6773 8.168 15.504 7.992 15.36C7.816 15.216 7.584 15.144 7.296 15.144C7.03467 15.144 6.82133 15.2107 6.656 15.344C6.49067 15.4773 6.408 15.6693 6.408 15.92C6.408 16.0907 6.45867 16.232 6.56 16.344C6.66667 16.4507 6.8 16.536 6.96 16.6C7.12 16.664 7.33867 16.7333 7.616 16.808C7.984 16.9093 8.28267 17.0107 8.512 17.112C8.74667 17.2133 8.944 17.3707 9.104 17.584C9.26933 17.792 9.352 18.072 9.352 18.424C9.352 18.7067 9.27467 18.9733 9.12 19.224C8.97067 19.4747 8.74933 19.6773 8.456 19.832C8.168 19.9813 7.82667 20.056 7.432 20.056ZM11.3401 15.176V16.808H13.2601V17.552H11.3401V19.256H13.5001V20H10.4281V14.432H13.5001V15.176H11.3401ZM17.1594 20.056C16.6421 20.056 16.1648 19.936 15.7274 19.696C15.2954 19.4507 14.9514 19.112 14.6954 18.68C14.4448 18.2427 14.3194 17.752 14.3194 17.208C14.3194 16.664 14.4448 16.176 14.6954 15.744C14.9514 15.312 15.2954 14.976 15.7274 14.736C16.1648 14.4907 16.6421 14.368 17.1594 14.368C17.6821 14.368 18.1594 14.4907 18.5914 14.736C19.0288 14.976 19.3728 15.312 19.6234 15.744C19.8741 16.176 19.9994 16.664 19.9994 17.208C19.9994 17.752 19.8741 18.2427 19.6234 18.68C19.3728 19.112 19.0288 19.4507 18.5914 19.696C18.1594 19.936 17.6821 20.056 17.1594 20.056ZM17.1594 19.264C17.5274 19.264 17.8554 19.1813 18.1434 19.016C18.4314 18.8453 18.6554 18.6053 18.8154 18.296C18.9808 17.9813 19.0634 17.6187 19.0634 17.208C19.0634 16.7973 18.9808 16.4373 18.8154 16.128C18.6554 15.8187 18.4314 15.5813 18.1434 15.416C17.8554 15.2507 17.5274 15.168 17.1594 15.168C16.7914 15.168 16.4634 15.2507 16.1754 15.416C15.8874 15.5813 15.6608 15.8187 15.4954 16.128C15.3354 16.4373 15.2554 16.7973 15.2554 17.208C15.2554 17.6187 15.3354 17.9813 15.4954 18.296C15.6608 18.6053 15.8874 18.8453 16.1754 19.016C16.4634 19.1813 16.7914 19.264 17.1594 19.264Z" fill="#666666"/>
</svg>
