<svg width="36" height="36" viewBox="0 0 36 36" fill="none" xmlns="http://www.w3.org/2000/svg">
<circle cx="18" cy="18" r="17.25" fill="#F3F4F7" stroke="#E0E3EB" stroke-width="1.5"/>
<g clip-path="url(#clip0_126_2162)">
<path d="M26.6667 8H9.33333C8.97971 8 8.64057 8.14048 8.39052 8.39052C8.14048 8.64057 8 8.97971 8 9.33333V26.6667C8 27.0203 8.14048 27.3594 8.39052 27.6095C8.64057 27.8595 8.97971 28 9.33333 28H26.6667C27.0203 28 27.3594 27.8595 27.6095 27.6095C27.8595 27.3594 28 27.0203 28 26.6667V9.33333C28 8.97971 27.8595 8.64057 27.6095 8.39052C27.3594 8.14048 27.0203 8 26.6667 8V8ZM27.3333 26.6667C27.3333 26.8435 27.2631 27.013 27.1381 27.1381C27.013 27.2631 26.8435 27.3333 26.6667 27.3333H9.33333C9.15652 27.3333 8.98695 27.2631 8.86193 27.1381C8.7369 27.013 8.66667 26.8435 8.66667 26.6667V11.3333H27.3333V26.6667ZM27.3333 10.6667H8.66667V9.33333C8.66667 9.15652 8.7369 8.98695 8.86193 8.86193C8.98695 8.7369 9.15652 8.66667 9.33333 8.66667H26.6667C26.8435 8.66667 27.013 8.7369 27.1381 8.86193C27.2631 8.98695 27.3333 9.15652 27.3333 9.33333V10.6667Z" fill="#666666"/>
<path d="M9.99984 19C9.99984 19.2653 10.1052 19.5196 10.2927 19.7071C10.4803 19.8947 10.7346 20 10.9998 20H16.3332C16.5984 20 16.8527 19.8947 17.0403 19.7071C17.2278 19.5196 17.3332 19.2653 17.3332 19V16.5574C17.4381 16.4638 17.522 16.349 17.5795 16.2207C17.6369 16.0923 17.6666 15.9533 17.6665 15.8127V14.6667C17.6665 14.4015 17.5611 14.1471 17.3736 13.9596C17.1861 13.7721 16.9317 13.6667 16.6665 13.6667H15.6665V13.3334C15.6665 13.0682 15.5611 12.8138 15.3736 12.6263C15.1861 12.4387 14.9317 12.3334 14.6665 12.3334H12.6665C12.4013 12.3334 12.1469 12.4387 11.9594 12.6263C11.7719 12.8138 11.6665 13.0682 11.6665 13.3334V13.6667H10.6665C10.4013 13.6667 10.1469 13.7721 9.9594 13.9596C9.77186 14.1471 9.6665 14.4015 9.6665 14.6667V15.8127C9.66643 15.9533 9.69609 16.0923 9.75354 16.2207C9.81099 16.349 9.89492 16.4638 9.99984 16.5574V19ZM16.6665 19C16.6665 19.0884 16.6314 19.1732 16.5689 19.2357C16.5064 19.2983 16.4216 19.3334 16.3332 19.3334H10.9998C10.9114 19.3334 10.8266 19.2983 10.7641 19.2357C10.7016 19.1732 10.6665 19.0884 10.6665 19V16.8437L12.3332 17.26V17.6667C12.3332 17.9319 12.4385 18.1863 12.6261 18.3738C12.8136 18.5614 13.068 18.6667 13.3332 18.6667H13.9998C14.2651 18.6667 14.5194 18.5614 14.7069 18.3738C14.8945 18.1863 14.9998 17.9319 14.9998 17.6667V17.26L16.6665 16.8437V19ZM12.9998 17.6667V17.3334H14.3332V17.6667C14.3332 17.7551 14.2981 17.8399 14.2355 17.9024C14.173 17.9649 14.0882 18 13.9998 18H13.3332C13.2448 18 13.16 17.9649 13.0975 17.9024C13.035 17.8399 12.9998 17.7551 12.9998 17.6667ZM12.3332 13.3334C12.3332 13.245 12.3683 13.1602 12.4308 13.0977C12.4933 13.0352 12.5781 13 12.6665 13H14.6665C14.7549 13 14.8397 13.0352 14.9022 13.0977C14.9647 13.1602 14.9998 13.245 14.9998 13.3334V13.6667H12.3332V13.3334ZM10.3332 14.6667C10.3332 14.5783 10.3683 14.4935 10.4308 14.431C10.4933 14.3685 10.5781 14.3334 10.6665 14.3334H16.6665C16.7549 14.3334 16.8397 14.3685 16.9022 14.431C16.9647 14.4935 16.9998 14.5783 16.9998 14.6667V15.8127C16.9999 15.8871 16.975 15.9594 16.9293 16.0181C16.8835 16.0767 16.8194 16.1184 16.7472 16.1364L14.6255 16.6667H12.7075L10.5858 16.1364C10.5136 16.1184 10.4495 16.0767 10.4038 16.0181C10.358 15.9594 10.3331 15.8871 10.3332 15.8127V14.6667Z" fill="#666666"/>
<path d="M10.0002 9.33337H9.66683C9.57842 9.33337 9.49364 9.36849 9.43113 9.43101C9.36862 9.49352 9.3335 9.5783 9.3335 9.66671C9.3335 9.75511 9.36862 9.8399 9.43113 9.90241C9.49364 9.96492 9.57842 10 9.66683 10H10.0002C10.0886 10 10.1734 9.96492 10.2359 9.90241C10.2984 9.8399 10.3335 9.75511 10.3335 9.66671C10.3335 9.5783 10.2984 9.49352 10.2359 9.43101C10.1734 9.36849 10.0886 9.33337 10.0002 9.33337Z" fill="#666666"/>
<path d="M11.6667 9.33337H11.3333C11.2449 9.33337 11.1601 9.36849 11.0976 9.43101C11.0351 9.49352 11 9.5783 11 9.66671C11 9.75511 11.0351 9.8399 11.0976 9.90241C11.1601 9.96492 11.2449 10 11.3333 10H11.6667C11.7551 10 11.8399 9.96492 11.9024 9.90241C11.9649 9.8399 12 9.75511 12 9.66671C12 9.5783 11.9649 9.49352 11.9024 9.43101C11.8399 9.36849 11.7551 9.33337 11.6667 9.33337Z" fill="#666666"/>
<path d="M13.3332 9.33337H12.9998C12.9114 9.33337 12.8266 9.36849 12.7641 9.43101C12.7016 9.49352 12.6665 9.5783 12.6665 9.66671C12.6665 9.75511 12.7016 9.8399 12.7641 9.90241C12.8266 9.96492 12.9114 10 12.9998 10H13.3332C13.4216 10 13.5064 9.96492 13.5689 9.90241C13.6314 9.8399 13.6665 9.75511 13.6665 9.66671C13.6665 9.5783 13.6314 9.49352 13.5689 9.43101C13.5064 9.36849 13.4216 9.33337 13.3332 9.33337Z" fill="#666666"/>
<path d="M26.3333 9.33337H24.3333C24.2449 9.33337 24.1601 9.36849 24.0976 9.43101C24.0351 9.49352 24 9.5783 24 9.66671C24 9.75511 24.0351 9.8399 24.0976 9.90241C24.1601 9.96492 24.2449 10 24.3333 10H26.3333C26.4217 10 26.5065 9.96492 26.569 9.90241C26.6315 9.8399 26.6667 9.75511 26.6667 9.66671C26.6667 9.5783 26.6315 9.49352 26.569 9.43101C26.5065 9.36849 26.4217 9.33337 26.3333 9.33337Z" fill="#666666"/>
<path d="M25.6667 21.3334H10.3333C10.2449 21.3334 10.1601 21.3685 10.0976 21.431C10.0351 21.4935 10 21.5783 10 21.6667C10 21.7551 10.0351 21.8399 10.0976 21.9024C10.1601 21.9649 10.2449 22 10.3333 22H25.6667C25.7551 22 25.8399 21.9649 25.9024 21.9024C25.9649 21.8399 26 21.7551 26 21.6667C26 21.5783 25.9649 21.4935 25.9024 21.431C25.8399 21.3685 25.7551 21.3334 25.6667 21.3334Z" fill="#666666"/>
<path d="M25.6667 23.3334H10.3333C10.2449 23.3334 10.1601 23.3685 10.0976 23.431C10.0351 23.4935 10 23.5783 10 23.6667C10 23.7551 10.0351 23.8399 10.0976 23.9024C10.1601 23.9649 10.2449 24 10.3333 24H25.6667C25.7551 24 25.8399 23.9649 25.9024 23.9024C25.9649 23.8399 26 23.7551 26 23.6667C26 23.5783 25.9649 23.4935 25.9024 23.431C25.8399 23.3685 25.7551 23.3334 25.6667 23.3334Z" fill="#666666"/>
<path d="M19 25.3334H10.3333C10.2449 25.3334 10.1601 25.3685 10.0976 25.431C10.0351 25.4935 10 25.5783 10 25.6667C10 25.7551 10.0351 25.8399 10.0976 25.9024C10.1601 25.9649 10.2449 26 10.3333 26H19C19.0884 26 19.1732 25.9649 19.2357 25.9024C19.2982 25.8399 19.3333 25.7551 19.3333 25.6667C19.3333 25.5783 19.2982 25.4935 19.2357 25.431C19.1732 25.3685 19.0884 25.3334 19 25.3334Z" fill="#666666"/>
<path d="M19.0978 14.569C19.1603 14.6315 19.2451 14.6666 19.3335 14.6666H19.3571C19.4048 14.6631 19.4512 14.6494 19.4932 14.6264C19.5351 14.6034 19.5716 14.5717 19.6001 14.5333L20.6001 13.2C20.6532 13.1292 20.676 13.0403 20.6635 12.9528C20.6509 12.8653 20.6042 12.7863 20.5335 12.7333C20.4627 12.6803 20.3738 12.6575 20.2863 12.67C20.1988 12.6825 20.1198 12.7292 20.0668 12.8L19.2975 13.826L19.2358 13.7643C19.1729 13.7036 19.0887 13.67 19.0013 13.6707C18.9139 13.6715 18.8303 13.7066 18.7685 13.7684C18.7067 13.8302 18.6717 13.9138 18.6709 14.0012C18.6702 14.0886 18.7037 14.1728 18.7645 14.2356L19.0978 14.569Z" fill="#666666"/>
<path d="M21.9998 13.3333H25.6665C25.7549 13.3333 25.8397 13.2982 25.9022 13.2357C25.9647 13.1731 25.9998 13.0884 25.9998 13C25.9998 12.9116 25.9647 12.8268 25.9022 12.7643C25.8397 12.7017 25.7549 12.6666 25.6665 12.6666H21.9998C21.9114 12.6666 21.8266 12.7017 21.7641 12.7643C21.7016 12.8268 21.6665 12.9116 21.6665 13C21.6665 13.0884 21.7016 13.1731 21.7641 13.2357C21.8266 13.2982 21.9114 13.3333 21.9998 13.3333Z" fill="#666666"/>
<path d="M21.9998 14.6667H23.9998C24.0882 14.6667 24.173 14.6315 24.2355 14.569C24.2981 14.5065 24.3332 14.4217 24.3332 14.3333C24.3332 14.2449 24.2981 14.1601 24.2355 14.0976C24.173 14.0351 24.0882 14 23.9998 14H21.9998C21.9114 14 21.8266 14.0351 21.7641 14.0976C21.7016 14.1601 21.6665 14.2449 21.6665 14.3333C21.6665 14.4217 21.7016 14.5065 21.7641 14.569C21.8266 14.6315 21.9114 14.6667 21.9998 14.6667Z" fill="#666666"/>
<path d="M19.0978 17.2357C19.1603 17.2982 19.2451 17.3334 19.3335 17.3334H19.3571C19.4048 17.3299 19.4512 17.3162 19.4932 17.2932C19.5351 17.2702 19.5716 17.2384 19.6001 17.2L20.6001 15.8667C20.6532 15.796 20.676 15.7071 20.6635 15.6196C20.6509 15.5321 20.6042 15.4531 20.5335 15.4C20.4627 15.347 20.3738 15.3242 20.2863 15.3367C20.1988 15.3492 20.1198 15.396 20.0668 15.4667L19.2975 16.4927L19.2358 16.431C19.1729 16.3703 19.0887 16.3367 19.0013 16.3375C18.9139 16.3382 18.8303 16.3733 18.7685 16.4351C18.7067 16.4969 18.6717 16.5805 18.6709 16.6679C18.6702 16.7553 18.7037 16.8395 18.7645 16.9024L19.0978 17.2357Z" fill="#666666"/>
<path d="M21.9998 16H25.6665C25.7549 16 25.8397 15.9649 25.9022 15.9024C25.9647 15.8399 25.9998 15.7551 25.9998 15.6667C25.9998 15.5783 25.9647 15.4935 25.9022 15.431C25.8397 15.3685 25.7549 15.3334 25.6665 15.3334H21.9998C21.9114 15.3334 21.8266 15.3685 21.7641 15.431C21.7016 15.4935 21.6665 15.5783 21.6665 15.6667C21.6665 15.7551 21.7016 15.8399 21.7641 15.9024C21.8266 15.9649 21.9114 16 21.9998 16Z" fill="#666666"/>
<path d="M21.9998 17.3333H23.9998C24.0882 17.3333 24.173 17.2982 24.2355 17.2357C24.2981 17.1731 24.3332 17.0884 24.3332 17C24.3332 16.9116 24.2981 16.8268 24.2355 16.7643C24.173 16.7017 24.0882 16.6666 23.9998 16.6666H21.9998C21.9114 16.6666 21.8266 16.7017 21.7641 16.7643C21.7016 16.8268 21.6665 16.9116 21.6665 17C21.6665 17.0884 21.7016 17.1731 21.7641 17.2357C21.8266 17.2982 21.9114 17.3333 21.9998 17.3333Z" fill="#666666"/>
<path d="M19.0978 19.9023C19.1603 19.9649 19.2451 20 19.3335 20H19.3571C19.4048 19.9965 19.4512 19.9828 19.4932 19.9598C19.5351 19.9368 19.5716 19.905 19.6001 19.8667L20.6001 18.5333C20.6532 18.4626 20.676 18.3737 20.6635 18.2862C20.6509 18.1987 20.6042 18.1197 20.5335 18.0667C20.4627 18.0136 20.3738 17.9908 20.2863 18.0034C20.1988 18.0159 20.1198 18.0626 20.0668 18.1333L19.2975 19.1593L19.2358 19.0977C19.1729 19.0369 19.0887 19.0034 19.0013 19.0041C18.9139 19.0049 18.8303 19.0399 18.7685 19.1017C18.7067 19.1635 18.6717 19.2471 18.6709 19.3345C18.6702 19.4219 18.7037 19.5061 18.7645 19.569L19.0978 19.9023Z" fill="#666666"/>
<path d="M21.9998 18.6667H25.6665C25.7549 18.6667 25.8397 18.6315 25.9022 18.569C25.9647 18.5065 25.9998 18.4217 25.9998 18.3333C25.9998 18.2449 25.9647 18.1601 25.9022 18.0976C25.8397 18.0351 25.7549 18 25.6665 18H21.9998C21.9114 18 21.8266 18.0351 21.7641 18.0976C21.7016 18.1601 21.6665 18.2449 21.6665 18.3333C21.6665 18.4217 21.7016 18.5065 21.7641 18.569C21.8266 18.6315 21.9114 18.6667 21.9998 18.6667Z" fill="#666666"/>
<path d="M21.9998 20H23.9998C24.0882 20 24.173 19.9649 24.2355 19.9024C24.2981 19.8399 24.3332 19.7551 24.3332 19.6667C24.3332 19.5783 24.2981 19.4935 24.2355 19.431C24.173 19.3685 24.0882 19.3334 23.9998 19.3334H21.9998C21.9114 19.3334 21.8266 19.3685 21.7641 19.431C21.7016 19.4935 21.6665 19.5783 21.6665 19.6667C21.6665 19.7551 21.7016 19.8399 21.7641 19.9024C21.8266 19.9649 21.9114 20 21.9998 20Z" fill="#666666"/>
</g>
<defs>
<clipPath id="clip0_126_2162">
<rect width="20" height="20" fill="white" transform="translate(8 8)"/>
</clipPath>
</defs>
</svg>
