<svg width="36" height="36" viewBox="0 0 36 36" fill="none" xmlns="http://www.w3.org/2000/svg">
<circle cx="18" cy="18" r="17.25" fill="#F3F4F7" stroke="#E0E3EB" stroke-width="1.5"/>
<path d="M17.6248 19.6458C17.6943 19.8125 17.8193 19.8958 17.9998 19.8958C18.1804 19.8958 18.3054 19.8125 18.3748 19.6458L19.2915 17.625L21.3123 16.7083C21.479 16.6388 21.5623 16.5138 21.5623 16.3333C21.5623 16.1527 21.479 16.0277 21.3123 15.9583L19.2915 15.0416L18.3748 13.0208C18.3054 12.8541 18.1804 12.7708 17.9998 12.7708C17.8193 12.7708 17.6943 12.8541 17.6248 13.0208L16.7082 15.0416L14.6873 15.9583C14.5207 16.0277 14.4373 16.1527 14.4373 16.3333C14.4373 16.5138 14.5207 16.6388 14.6873 16.7083L16.7082 17.625L17.6248 19.6458ZM9.6665 24.3125V11.3333C9.6665 10.875 9.82984 10.4825 10.1565 10.1558C10.4826 9.82968 10.8748 9.66663 11.3332 9.66663H24.6665C25.1248 9.66663 25.5173 9.82968 25.844 10.1558C26.1701 10.4825 26.3332 10.875 26.3332 11.3333V21.3333C26.3332 21.7916 26.1701 22.1841 25.844 22.5108C25.5173 22.8369 25.1248 23 24.6665 23H12.9998L11.0832 24.9166C10.8193 25.1805 10.5171 25.2394 10.1765 25.0933C9.8365 24.9477 9.6665 24.6875 9.6665 24.3125Z" fill="#666666"/>
</svg>
