<svg width="36" height="36" viewBox="0 0 36 36" fill="none" xmlns="http://www.w3.org/2000/svg">
<circle cx="18" cy="18" r="17.25" fill="#F3F4F7" stroke="#E0E3EB" stroke-width="1.5"/>
<g clip-path="url(#clip0_126_2245)">
<path d="M26.6646 11.3291C25.8605 11.4067 25.2592 12.1021 25.2985 12.909L25.3589 15.3831C24.6974 15.4488 24.1184 15.8557 23.8323 16.4556L22.9281 18.354C22.7876 18.6483 22.5824 18.9074 22.3283 19.1117L22.1404 19.2624C21.1847 20.025 20.6521 21.1993 20.7082 22.4206L20.3388 22.2448C20.1713 22.1649 19.9708 22.2361 19.8911 22.4035L18.8999 24.4848C18.8202 24.6524 18.8912 24.8528 19.0586 24.9325L23.6266 27.108C23.707 27.1463 23.7993 27.1512 23.8832 27.1214C23.9672 27.0916 24.0359 27.0297 24.0741 26.9492L25.0655 24.8676C25.1452 24.7001 25.0742 24.4998 24.9068 24.4201L24.7118 24.3273L24.6631 23.6761C24.6436 23.4218 24.7238 23.1698 24.8866 22.9733L27.2521 20.1108C27.2569 20.1051 27.2615 20.0992 27.2659 20.0931C27.7536 19.4123 28.0107 18.5934 27.9997 17.7561C27.9994 17.7402 27.9979 17.7243 27.9954 17.7086L27.0289 11.6108C27.0011 11.4354 26.8414 11.3119 26.6646 11.3291ZM23.6122 26.3571L19.6507 24.4704L20.3532 22.9953L24.3147 24.882L23.6122 26.3571ZM26.7271 19.6918L24.3689 22.5455C24.0953 22.8754 23.9606 23.2988 23.9933 23.7261L24.0134 23.9946L21.4169 22.758C21.2324 21.6335 21.6697 20.497 22.5605 19.7863L22.7484 19.6356C23.0816 19.3678 23.3503 19.0284 23.5346 18.6427L24.4386 16.7444C24.6751 16.2498 25.2105 15.9714 25.7513 16.0619L24.4298 18.8369C24.3512 19.0041 24.4224 19.2034 24.5893 19.2829C24.7561 19.3623 24.9558 19.2921 25.0362 19.1256L26.5221 16.0054C26.6018 15.8378 26.5308 15.6374 26.3632 15.5577C26.2568 15.5072 26.1459 15.4667 26.032 15.4365L25.9698 12.8885C25.9698 12.8856 25.9698 12.8826 25.9695 12.8798C25.9523 12.5493 26.1304 12.2393 26.4244 12.0875L27.3284 17.7894C27.3323 18.4711 27.1221 19.1365 26.7271 19.6918Z" fill="#666666"/>
<path d="M8.7479 20.1108L11.1134 22.9733C11.2762 23.1698 11.3564 23.4218 11.3369 23.6761L11.2882 24.3273L11.0932 24.4201C10.9258 24.4998 10.8548 24.7001 10.9345 24.8676L11.9259 26.9492C11.9641 27.0297 12.0328 27.0916 12.1168 27.1214C12.2007 27.1512 12.293 27.1463 12.3736 27.108L16.9414 24.9325C17.1088 24.8528 17.1798 24.6524 17.1001 24.4848L16.1087 22.4033C16.0291 22.2359 15.8287 22.1648 15.6613 22.2446L15.2918 22.4204C15.3477 21.1991 14.8153 20.0249 13.8597 19.2622L13.6717 19.1115C13.4174 18.9072 13.2125 18.6483 13.0718 18.354L12.1676 16.4556C11.8815 15.8557 11.3025 15.4488 10.641 15.3831L10.7015 12.909C10.7409 12.1023 10.1396 11.4067 9.33542 11.3291C9.15866 11.3119 8.99895 11.4354 8.97107 11.6108L8.0046 17.7086C8.00198 17.7243 8.00067 17.7402 8.00034 17.7561C7.98935 18.5934 8.24646 19.4123 8.73413 20.0931C8.73855 20.0992 8.74315 20.1051 8.7479 20.1108ZM16.3493 24.4706L12.3878 26.3571L11.6854 24.882L15.6468 22.9953L16.3493 24.4706ZM9.57565 12.0873C9.86966 12.2392 10.0477 12.5493 10.0305 12.8797C10.0305 12.8826 10.0304 12.8856 10.0302 12.8885L9.96804 15.4365C9.85408 15.4665 9.74307 15.507 9.63665 15.5577C9.46923 15.6374 9.39806 15.8379 9.47792 16.0054L10.9639 19.1258C11.0442 19.2922 11.2439 19.3624 11.4107 19.2829C11.5775 19.2035 11.6488 19.0043 11.5702 18.837L10.2488 16.0619C10.7896 15.9713 11.3251 16.2497 11.5614 16.7444L12.4655 18.6427C12.6499 19.0284 12.9184 19.3678 13.2516 19.6356L13.4396 19.7863C14.3303 20.497 14.7676 21.6335 14.5831 22.758L11.9866 23.9946L12.0067 23.7261C12.0394 23.2988 11.9048 22.8754 11.6312 22.5455L9.27295 19.6918C8.8781 19.1365 8.66772 18.4711 8.67182 17.7894L9.57565 12.0873Z" fill="#666666"/>
<path d="M22.0049 16.1782C22.1441 16.1338 22.2389 16.0047 22.2397 15.8584V10.5358C22.2389 10.3897 22.1441 10.2607 22.0049 10.2162L18.1041 8.95837C18.0369 8.93673 17.9646 8.93673 17.8973 8.95837L13.9954 10.2161C13.856 10.2605 13.7612 10.3895 13.7603 10.5358V15.8584C13.7611 16.0047 13.8559 16.1336 13.9951 16.1782L17.8959 17.4359C17.9293 17.4465 17.9644 17.452 17.9995 17.452C18.0349 17.452 18.0702 17.4465 18.1038 17.4359L22.0049 16.1782ZM18.3358 16.6552V12.0377L21.5681 10.9966V15.6141L18.3358 16.6552ZM18 9.63083L20.8058 10.5358L18 11.4405L15.1942 10.5358L18 9.63083ZM14.4319 10.9967L17.6642 12.0378V16.6554L14.4319 15.6143V10.9967Z" fill="#666666"/>
</g>
<defs>
<clipPath id="clip0_126_2245">
<rect width="20" height="20" fill="white" transform="translate(8 8)"/>
</clipPath>
</defs>
</svg>
