<svg width="36" height="36" viewBox="0 0 36 36" fill="none" xmlns="http://www.w3.org/2000/svg">
<circle cx="18" cy="18" r="17.25" fill="#F3F4F7" stroke="#E0E3EB" stroke-width="1.5"/>
<g clip-path="url(#clip0_126_2214)">
<path d="M22.5542 26.6422H9.32414C8.75465 26.6422 8.29297 26.1805 8.29297 25.611V10.9203C8.29297 10.0574 8.99254 9.35779 9.85547 9.35779H26.1445C27.0075 9.35779 27.707 10.0574 27.707 10.9203V25.611C27.707 26.1804 27.2454 26.6421 26.6759 26.6421H24.1167" stroke="#666666" stroke-miterlimit="10" stroke-linecap="round" stroke-linejoin="round"/>
<path d="M13.374 12.2849H27.5086" stroke="#666666" stroke-miterlimit="10" stroke-linecap="round" stroke-linejoin="round"/>
<path d="M8.29297 12.2849H11.8116" stroke="#666666" stroke-miterlimit="10" stroke-linecap="round" stroke-linejoin="round"/>
<path d="M22.2852 10.9388H25.829" stroke="#666666" stroke-miterlimit="10" stroke-linecap="round" stroke-linejoin="round"/>
<path d="M10.974 15.3134C11.3494 15.3134 11.6537 15.0092 11.6537 14.6338C11.6537 14.2585 11.3494 13.9542 10.974 13.9542C10.5987 13.9542 10.2944 14.2585 10.2944 14.6338C10.2944 15.0092 10.5987 15.3134 10.974 15.3134Z" stroke="#666666" stroke-miterlimit="10" stroke-linecap="round" stroke-linejoin="round"/>
<path d="M25.0258 15.3134C25.4011 15.3134 25.7054 15.0092 25.7054 14.6338C25.7054 14.2585 25.4011 13.9542 25.0258 13.9542C24.6505 13.9542 24.3462 14.2585 24.3462 14.6338C24.3462 15.0092 24.6505 15.3134 25.0258 15.3134Z" stroke="#666666" stroke-miterlimit="10" stroke-linecap="round" stroke-linejoin="round"/>
<path d="M10.974 20.8407C11.3494 20.8407 11.6537 20.5364 11.6537 20.1611C11.6537 19.7857 11.3494 19.4814 10.974 19.4814C10.5987 19.4814 10.2944 19.7857 10.2944 20.1611C10.2944 20.5364 10.5987 20.8407 10.974 20.8407Z" stroke="#666666" stroke-miterlimit="10" stroke-linecap="round" stroke-linejoin="round"/>
<path d="M25.0258 20.8407C25.4011 20.8407 25.7054 20.5364 25.7054 20.1611C25.7054 19.7857 25.4011 19.4814 25.0258 19.4814C24.6505 19.4814 24.3462 19.7857 24.3462 20.1611C24.3462 20.5364 24.6505 20.8407 25.0258 20.8407Z" stroke="#666666" stroke-miterlimit="10" stroke-linecap="round" stroke-linejoin="round"/>
<path d="M19.7085 16.1694V18.6233C19.7356 18.6279 20.5685 18.6233 20.5685 18.6233" stroke="#666666" stroke-miterlimit="10" stroke-linecap="round" stroke-linejoin="round"/>
<path d="M15.7251 16.1694V18.6253" stroke="#666666" stroke-miterlimit="10" stroke-linecap="round" stroke-linejoin="round"/>
<path d="M23.0048 16.1807H21.9795V18.6141H23.0048" stroke="#666666" stroke-miterlimit="10" stroke-linecap="round" stroke-linejoin="round"/>
<path d="M22.9293 17.3975H21.9795" stroke="#666666" stroke-miterlimit="10" stroke-linecap="round" stroke-linejoin="round"/>
<path d="M12.9951 16.1694H14.3514" stroke="#666666" stroke-miterlimit="10" stroke-linecap="round" stroke-linejoin="round"/>
<path d="M13.6704 16.2479V18.6254" stroke="#666666" stroke-miterlimit="10" stroke-linecap="round" stroke-linejoin="round"/>
<path d="M17.0264 16.1694H18.3827" stroke="#666666" stroke-miterlimit="10" stroke-linecap="round" stroke-linejoin="round"/>
<path d="M17.7017 16.2479V18.6254" stroke="#666666" stroke-miterlimit="10" stroke-linecap="round" stroke-linejoin="round"/>
<path d="M10.9741 22.8706H17.2874" stroke="#666666" stroke-miterlimit="10" stroke-linecap="round" stroke-linejoin="round"/>
<path d="M10.9741 24.3247H17.2874" stroke="#666666" stroke-miterlimit="10" stroke-linecap="round" stroke-linejoin="round"/>
<path d="M24.7751 24.4028H19.2549C19.1166 24.4028 19.0044 24.2906 19.0044 24.1522V23.043C19.0044 22.9047 19.1166 22.7925 19.2549 22.7925H24.7751C24.9135 22.7925 25.0257 22.9047 25.0257 23.043V24.1522C25.0257 24.2906 24.9135 24.4028 24.7751 24.4028Z" stroke="#666666" stroke-miterlimit="10" stroke-linecap="round" stroke-linejoin="round"/>
<path d="M10.9741 15.3524V19.4748" stroke="#666666" stroke-miterlimit="10" stroke-linecap="round" stroke-linejoin="round"/>
<path d="M25.0259 15.3134V19.2248" stroke="#666666" stroke-miterlimit="10" stroke-linecap="round" stroke-linejoin="round"/>
<path d="M11.6538 20.161H24.3464" stroke="#666666" stroke-miterlimit="10" stroke-linecap="round" stroke-linejoin="round"/>
<path d="M11.8115 14.6338H24.2236" stroke="#666666" stroke-miterlimit="10" stroke-linecap="round" stroke-linejoin="round"/>
</g>
<defs>
<clipPath id="clip0_126_2214">
<rect width="20" height="20" fill="white" transform="translate(8 8)"/>
</clipPath>
</defs>
</svg>
