<svg width="19" height="19" viewBox="0 0 19 19" fill="none" xmlns="http://www.w3.org/2000/svg">
<path d="M0.902344 9.50003C0.898902 10.8199 1.20727 12.1219 1.80234 13.3C2.50791 14.7118 3.59259 15.8992 4.93489 16.7293C6.2772 17.5594 7.8241 17.9994 9.40234 18C10.5831 18.0031 11.7497 17.7566 12.826 17.2785C13.0696 17.1703 13.3446 17.1475 13.5976 17.2318L17.005 18.3676C17.7867 18.6282 18.5305 17.8844 18.2699 17.1027L17.1341 13.6953C17.0498 13.4423 17.0726 13.1673 17.1809 12.9236C17.6589 11.8474 17.9054 10.6808 17.9023 9.50003C17.9017 7.92179 17.4617 6.37488 16.6316 5.03258C15.8015 3.69028 14.6141 2.6056 13.2023 1.90003C12.0242 1.30496 10.7222 0.996587 9.40234 1.00003H8.90234C6.818 1.11502 4.8493 1.99479 3.3732 3.47089C1.89711 4.94699 1.01734 6.91568 0.902344 9.00003V9.50003Z" stroke="#0C0C16" stroke-linecap="round" stroke-linejoin="round"/>
</svg>
