<svg width="294" height="254" viewBox="0 0 294 254" fill="none" xmlns="http://www.w3.org/2000/svg">
<rect width="295" height="252.225" transform="translate(0 0.875)" fill="#DDDDFF"/>
<path d="M184.444 59.1499H110.556C104.726 59.1499 100 63.8758 100 69.7054V143.594C100 149.424 104.726 154.15 110.556 154.15H184.444C190.274 154.15 195 149.424 195 143.594V69.7054C195 63.8758 190.274 59.1499 184.444 59.1499Z" stroke="#7979FF" stroke-width="3.5632" stroke-linecap="round" stroke-linejoin="round"/>
<path d="M129.027 96.0945C133.4 96.0945 136.944 92.5501 136.944 88.1779C136.944 83.8056 133.4 80.2612 129.027 80.2612C124.655 80.2612 121.111 83.8056 121.111 88.1779C121.111 92.5501 124.655 96.0945 129.027 96.0945Z" stroke="#7979FF" stroke-width="3.5632" stroke-linecap="round" stroke-linejoin="round"/>
<path d="M195 122.483L168.611 96.0945L110.556 154.15" stroke="#7979FF" stroke-width="3.5632" stroke-linecap="round" stroke-linejoin="round"/>
<path d="M104.08 182.81L101.32 188.126V191.15H99.952V188.126L97.18 182.81H98.704L100.636 186.902L102.568 182.81H104.08ZM108.034 191.258C107.41 191.258 106.846 191.118 106.342 190.838C105.838 190.55 105.442 190.15 105.154 189.638C104.866 189.118 104.722 188.518 104.722 187.838C104.722 187.166 104.87 186.57 105.166 186.05C105.462 185.53 105.866 185.13 106.378 184.85C106.89 184.57 107.462 184.43 108.094 184.43C108.726 184.43 109.298 184.57 109.81 184.85C110.322 185.13 110.726 185.53 111.022 186.05C111.318 186.57 111.466 187.166 111.466 187.838C111.466 188.51 111.314 189.106 111.01 189.626C110.706 190.146 110.29 190.55 109.762 190.838C109.242 191.118 108.666 191.258 108.034 191.258ZM108.034 190.07C108.386 190.07 108.714 189.986 109.018 189.818C109.33 189.65 109.582 189.398 109.774 189.062C109.966 188.726 110.062 188.318 110.062 187.838C110.062 187.358 109.97 186.954 109.786 186.626C109.602 186.29 109.358 186.038 109.054 185.87C108.75 185.702 108.422 185.618 108.07 185.618C107.718 185.618 107.39 185.702 107.086 185.87C106.79 186.038 106.554 186.29 106.378 186.626C106.202 186.954 106.114 187.358 106.114 187.838C106.114 188.55 106.294 189.102 106.654 189.494C107.022 189.878 107.482 190.07 108.034 190.07ZM118.806 184.538V191.15H117.438V190.37C117.222 190.642 116.938 190.858 116.586 191.018C116.242 191.17 115.874 191.246 115.482 191.246C114.962 191.246 114.494 191.138 114.078 190.922C113.67 190.706 113.346 190.386 113.106 189.962C112.874 189.538 112.758 189.026 112.758 188.426V184.538H114.114V188.222C114.114 188.814 114.262 189.27 114.558 189.59C114.854 189.902 115.258 190.058 115.77 190.058C116.282 190.058 116.686 189.902 116.982 189.59C117.286 189.27 117.438 188.814 117.438 188.222V184.538H118.806ZM121.979 185.498C122.179 185.162 122.443 184.902 122.771 184.718C123.107 184.526 123.503 184.43 123.959 184.43V185.846H123.611C123.075 185.846 122.667 185.982 122.387 186.254C122.115 186.526 121.979 186.998 121.979 187.67V191.15H120.611V184.538H121.979V185.498ZM129.702 182.81V191.15H128.334V182.81H129.702ZM139.502 184.43C140.022 184.43 140.486 184.538 140.894 184.754C141.31 184.97 141.634 185.29 141.866 185.714C142.106 186.138 142.226 186.65 142.226 187.25V191.15H140.87V187.454C140.87 186.862 140.722 186.41 140.426 186.098C140.13 185.778 139.726 185.618 139.214 185.618C138.702 185.618 138.294 185.778 137.99 186.098C137.694 186.41 137.546 186.862 137.546 187.454V191.15H136.19V187.454C136.19 186.862 136.042 186.41 135.746 186.098C135.45 185.778 135.046 185.618 134.534 185.618C134.022 185.618 133.614 185.778 133.31 186.098C133.014 186.41 132.866 186.862 132.866 187.454V191.15H131.498V184.538H132.866V185.294C133.09 185.022 133.374 184.81 133.718 184.658C134.062 184.506 134.43 184.43 134.822 184.43C135.35 184.43 135.822 184.542 136.238 184.766C136.654 184.99 136.974 185.314 137.198 185.738C137.398 185.338 137.71 185.022 138.134 184.79C138.558 184.55 139.014 184.43 139.502 184.43ZM143.51 187.814C143.51 187.15 143.646 186.562 143.918 186.05C144.198 185.538 144.574 185.142 145.046 184.862C145.526 184.574 146.054 184.43 146.63 184.43C147.15 184.43 147.602 184.534 147.986 184.742C148.378 184.942 148.69 185.194 148.922 185.498V184.538H150.302V191.15H148.922V190.166C148.69 190.478 148.374 190.738 147.974 190.946C147.574 191.154 147.118 191.258 146.606 191.258C146.038 191.258 145.518 191.114 145.046 190.826C144.574 190.53 144.198 190.122 143.918 189.602C143.646 189.074 143.51 188.478 143.51 187.814ZM148.922 187.838C148.922 187.382 148.826 186.986 148.634 186.65C148.45 186.314 148.206 186.058 147.902 185.882C147.598 185.706 147.27 185.618 146.918 185.618C146.566 185.618 146.238 185.706 145.934 185.882C145.63 186.05 145.382 186.302 145.19 186.638C145.006 186.966 144.914 187.358 144.914 187.814C144.914 188.27 145.006 188.67 145.19 189.014C145.382 189.358 145.63 189.622 145.934 189.806C146.246 189.982 146.574 190.07 146.918 190.07C147.27 190.07 147.598 189.982 147.902 189.806C148.206 189.63 148.45 189.374 148.634 189.038C148.826 188.694 148.922 188.294 148.922 187.838ZM154.763 184.43C155.275 184.43 155.727 184.534 156.119 184.742C156.519 184.942 156.831 185.194 157.055 185.498V184.538H158.435V191.258C158.435 191.866 158.307 192.406 158.051 192.878C157.795 193.358 157.423 193.734 156.935 194.006C156.455 194.278 155.879 194.414 155.207 194.414C154.311 194.414 153.567 194.202 152.975 193.778C152.383 193.362 152.047 192.794 151.967 192.074H153.323C153.427 192.418 153.647 192.694 153.983 192.902C154.327 193.118 154.735 193.226 155.207 193.226C155.759 193.226 156.203 193.058 156.539 192.722C156.883 192.386 157.055 191.898 157.055 191.258V190.154C156.823 190.466 156.507 190.73 156.107 190.946C155.715 191.154 155.267 191.258 154.763 191.258C154.187 191.258 153.659 191.114 153.179 190.826C152.707 190.53 152.331 190.122 152.051 189.602C151.779 189.074 151.643 188.478 151.643 187.814C151.643 187.15 151.779 186.562 152.051 186.05C152.331 185.538 152.707 185.142 153.179 184.862C153.659 184.574 154.187 184.43 154.763 184.43ZM157.055 187.838C157.055 187.382 156.959 186.986 156.767 186.65C156.583 186.314 156.339 186.058 156.035 185.882C155.731 185.706 155.403 185.618 155.051 185.618C154.699 185.618 154.371 185.706 154.067 185.882C153.763 186.05 153.515 186.302 153.323 186.638C153.139 186.966 153.047 187.358 153.047 187.814C153.047 188.27 153.139 188.67 153.323 189.014C153.515 189.358 153.763 189.622 154.067 189.806C154.379 189.982 154.707 190.07 155.051 190.07C155.403 190.07 155.731 189.982 156.035 189.806C156.339 189.63 156.583 189.374 156.767 189.038C156.959 188.694 157.055 188.294 157.055 187.838ZM166.292 187.682C166.292 187.93 166.276 188.154 166.244 188.354H161.192C161.232 188.882 161.428 189.306 161.78 189.626C162.132 189.946 162.564 190.106 163.076 190.106C163.812 190.106 164.332 189.798 164.636 189.182H166.112C165.912 189.79 165.548 190.29 165.02 190.682C164.5 191.066 163.852 191.258 163.076 191.258C162.444 191.258 161.876 191.118 161.372 190.838C160.876 190.55 160.484 190.15 160.196 189.638C159.916 189.118 159.776 188.518 159.776 187.838C159.776 187.158 159.912 186.562 160.184 186.05C160.464 185.53 160.852 185.13 161.348 184.85C161.852 184.57 162.428 184.43 163.076 184.43C163.7 184.43 164.256 184.566 164.744 184.838C165.232 185.11 165.612 185.494 165.884 185.99C166.156 186.478 166.292 187.042 166.292 187.682ZM164.864 187.25C164.856 186.746 164.676 186.342 164.324 186.038C163.972 185.734 163.536 185.582 163.016 185.582C162.544 185.582 162.14 185.734 161.804 186.038C161.468 186.334 161.268 186.738 161.204 187.25H164.864ZM177.415 182.81V191.15H176.047V187.502H172.123V191.15H170.755V182.81H172.123V186.386H176.047V182.81H177.415ZM185.276 187.682C185.276 187.93 185.26 188.154 185.228 188.354H180.176C180.216 188.882 180.412 189.306 180.764 189.626C181.116 189.946 181.548 190.106 182.06 190.106C182.796 190.106 183.316 189.798 183.62 189.182H185.096C184.896 189.79 184.532 190.29 184.004 190.682C183.484 191.066 182.836 191.258 182.06 191.258C181.428 191.258 180.86 191.118 180.356 190.838C179.86 190.55 179.468 190.15 179.18 189.638C178.9 189.118 178.76 188.518 178.76 187.838C178.76 187.158 178.896 186.562 179.168 186.05C179.448 185.53 179.836 185.13 180.332 184.85C180.836 184.57 181.412 184.43 182.06 184.43C182.684 184.43 183.24 184.566 183.728 184.838C184.216 185.11 184.596 185.494 184.868 185.99C185.14 186.478 185.276 187.042 185.276 187.682ZM183.848 187.25C183.84 186.746 183.66 186.342 183.308 186.038C182.956 185.734 182.52 185.582 182 185.582C181.528 185.582 181.124 185.734 180.788 186.038C180.452 186.334 180.252 186.738 180.188 187.25H183.848ZM187.991 185.498C188.191 185.162 188.455 184.902 188.783 184.718C189.119 184.526 189.515 184.43 189.971 184.43V185.846H189.623C189.087 185.846 188.679 185.982 188.399 186.254C188.127 186.526 187.991 186.998 187.991 187.67V191.15H186.623V184.538H187.991V185.498ZM197.288 187.682C197.288 187.93 197.272 188.154 197.24 188.354H192.188C192.228 188.882 192.424 189.306 192.776 189.626C193.128 189.946 193.56 190.106 194.072 190.106C194.808 190.106 195.328 189.798 195.632 189.182H197.108C196.908 189.79 196.544 190.29 196.016 190.682C195.496 191.066 194.848 191.258 194.072 191.258C193.44 191.258 192.872 191.118 192.368 190.838C191.872 190.55 191.48 190.15 191.192 189.638C190.912 189.118 190.772 188.518 190.772 187.838C190.772 187.158 190.908 186.562 191.18 186.05C191.46 185.53 191.848 185.13 192.344 184.85C192.848 184.57 193.424 184.43 194.072 184.43C194.696 184.43 195.252 184.566 195.74 184.838C196.228 185.11 196.608 185.494 196.88 185.99C197.152 186.478 197.288 187.042 197.288 187.682ZM195.86 187.25C195.852 186.746 195.672 186.342 195.32 186.038C194.968 185.734 194.532 185.582 194.012 185.582C193.54 185.582 193.136 185.734 192.8 186.038C192.464 186.334 192.264 186.738 192.2 187.25H195.86Z" fill="#7979FF"/>
</svg>
