<svg width="61" height="25" viewBox="0 0 61 25" fill="none" xmlns="http://www.w3.org/2000/svg">
<path d="M0.917614 19V1.54545H3.55114V16.733H11.4602V19H0.917614ZM19.7741 19.2642C18.5469 19.2642 17.4759 18.983 16.5611 18.4205C15.6463 17.858 14.9361 17.071 14.4304 16.0597C13.9247 15.0483 13.6719 13.8665 13.6719 12.5142C13.6719 11.1562 13.9247 9.96875 14.4304 8.9517C14.9361 7.93466 15.6463 7.14489 16.5611 6.58239C17.4759 6.01989 18.5469 5.73864 19.7741 5.73864C21.0014 5.73864 22.0724 6.01989 22.9872 6.58239C23.902 7.14489 24.6122 7.93466 25.1179 8.9517C25.6236 9.96875 25.8764 11.1562 25.8764 12.5142C25.8764 13.8665 25.6236 15.0483 25.1179 16.0597C24.6122 17.071 23.902 17.858 22.9872 18.4205C22.0724 18.983 21.0014 19.2642 19.7741 19.2642ZM19.7827 17.125C20.5781 17.125 21.2372 16.9148 21.7599 16.4943C22.2827 16.0739 22.669 15.5142 22.919 14.8153C23.1747 14.1165 23.3026 13.3466 23.3026 12.5057C23.3026 11.6705 23.1747 10.9034 22.919 10.2045C22.669 9.5 22.2827 8.93466 21.7599 8.50852C21.2372 8.08239 20.5781 7.86932 19.7827 7.86932C18.9815 7.86932 18.3168 8.08239 17.7884 8.50852C17.2656 8.93466 16.8764 9.5 16.6207 10.2045C16.3707 10.9034 16.2457 11.6705 16.2457 12.5057C16.2457 13.3466 16.3707 14.1165 16.6207 14.8153C16.8764 15.5142 17.2656 16.0739 17.7884 16.4943C18.3168 16.9148 18.9815 17.125 19.7827 17.125ZM34.2095 24.1818C33.1697 24.1818 32.2749 24.0455 31.5249 23.7727C30.7805 23.5 30.1726 23.1392 29.701 22.6903C29.2294 22.2415 28.8771 21.75 28.6442 21.2159L30.8345 20.3125C30.9879 20.5625 31.1925 20.8267 31.4482 21.1051C31.7095 21.3892 32.0618 21.6307 32.505 21.8295C32.9538 22.0284 33.5305 22.1278 34.2351 22.1278C35.201 22.1278 35.9993 21.892 36.63 21.4205C37.2607 20.9545 37.576 20.2102 37.576 19.1875V16.6136H37.4141C37.2607 16.892 37.0391 17.2017 36.7493 17.5426C36.4652 17.8835 36.0732 18.179 35.5732 18.429C35.0732 18.679 34.4226 18.804 33.6214 18.804C32.5874 18.804 31.6555 18.5625 30.826 18.0795C30.0021 17.5909 29.3487 16.8722 28.8658 15.9233C28.3885 14.9687 28.1499 13.7955 28.1499 12.4034C28.1499 11.0114 28.3857 9.81818 28.8572 8.82386C29.3345 7.82955 29.9879 7.06818 30.8175 6.53977C31.647 6.00568 32.5874 5.73864 33.6385 5.73864C34.451 5.73864 35.1072 5.875 35.6072 6.14773C36.1072 6.41477 36.4964 6.72727 36.7749 7.08523C37.0589 7.44318 37.2777 7.75852 37.4311 8.03125H37.6186V5.90909H40.1158V19.2898C40.1158 20.4148 39.8544 21.3381 39.3317 22.0597C38.8089 22.7813 38.1016 23.3153 37.2095 23.6619C36.3232 24.0085 35.3232 24.1818 34.2095 24.1818ZM34.1839 16.6903C34.9169 16.6903 35.5362 16.5199 36.0419 16.179C36.5533 15.8324 36.9396 15.3381 37.201 14.696C37.468 14.0483 37.6016 13.2727 37.6016 12.3693C37.6016 11.4886 37.4709 10.7131 37.2095 10.0426C36.9482 9.37216 36.5646 8.84943 36.0589 8.47443C35.5533 8.09375 34.9283 7.90341 34.1839 7.90341C33.4169 7.90341 32.7777 8.10227 32.2663 8.5C31.755 8.89205 31.3686 9.42614 31.1072 10.1023C30.8516 10.7784 30.7237 11.5341 30.7237 12.3693C30.7237 13.2273 30.8544 13.9801 31.1158 14.6278C31.3771 15.2756 31.7635 15.7812 32.2749 16.1449C32.7919 16.5085 33.4283 16.6903 34.1839 16.6903ZM43.5334 19V5.90909H46.0817V19H43.5334ZM44.8203 3.8892C44.3771 3.8892 43.9964 3.74148 43.6783 3.44602C43.3658 3.14489 43.2095 2.78693 43.2095 2.37216C43.2095 1.9517 43.3658 1.59375 43.6783 1.29829C43.9964 0.997159 44.3771 0.846591 44.8203 0.846591C45.2635 0.846591 45.6413 0.997159 45.9538 1.29829C46.272 1.59375 46.4311 1.9517 46.4311 2.37216C46.4311 2.78693 46.272 3.14489 45.9538 3.44602C45.6413 3.74148 45.2635 3.8892 44.8203 3.8892ZM52.0582 11.2273V19H49.5099V5.90909H51.956V8.03977H52.1179C52.419 7.34659 52.8906 6.78977 53.5327 6.36932C54.1804 5.94886 54.9957 5.73864 55.9787 5.73864C56.8707 5.73864 57.652 5.92614 58.3224 6.30114C58.9929 6.67045 59.5128 7.22159 59.8821 7.95455C60.2514 8.6875 60.4361 9.59375 60.4361 10.6733V19H57.8878V10.9801C57.8878 10.0312 57.6406 9.28977 57.1463 8.75568C56.652 8.21591 55.973 7.94602 55.1094 7.94602C54.5185 7.94602 53.9929 8.07386 53.5327 8.32955C53.0781 8.58523 52.7173 8.96023 52.4503 9.45455C52.1889 9.94318 52.0582 10.5341 52.0582 11.2273Z" fill="#4646FF"/>
</svg>
