<svg width="165" height="12" viewBox="0 0 165 12" fill="none" xmlns="http://www.w3.org/2000/svg">
<path d="M7.61994 1.02002H4.97994C2.74994 1.02002 0.939941 2.83003 0.939941 5.06003C0.939941 7.29003 2.74994 9.10004 4.97994 9.10004V11.25L7.61994 9.10004C9.84994 9.10004 11.6599 7.29003 11.6599 5.06003C11.6599 2.82003 9.84994 1.02002 7.61994 1.02002Z" stroke="#8A99A6" stroke-width="0.7134" stroke-miterlimit="10" stroke-linecap="round" stroke-linejoin="round"/>
<path d="M54.2599 1.75V8.95999C54.2599 9.80999 54.9499 10.5 55.7999 10.5H59.5299" stroke="#8A99A6" stroke-width="0.7134" stroke-miterlimit="10" stroke-linecap="round" stroke-linejoin="round"/>
<path d="M52.1499 3.85999L54.2599 1.75L56.3699 3.85999" stroke="#8A99A6" stroke-width="0.7134" stroke-miterlimit="10" stroke-linecap="round" stroke-linejoin="round"/>
<path d="M63.1499 10.5V3.29001C63.1499 2.44001 62.4599 1.75 61.6099 1.75H57.8799" stroke="#8A99A6" stroke-width="0.7134" stroke-miterlimit="10" stroke-linecap="round" stroke-linejoin="round"/>
<path d="M65.2599 8.39014L63.1499 10.5001L61.0299 8.39014" stroke="#8A99A6" stroke-width="0.7134" stroke-miterlimit="10" stroke-linecap="round" stroke-linejoin="round"/>
<path d="M115.55 2.25981C114.45 1.15981 112.66 1.15981 111.56 2.25981L110.97 2.84981L110.38 2.25981C109.28 1.15981 107.49 1.15981 106.39 2.25981C105.29 3.35981 105.29 5.1498 106.39 6.2498L106.98 6.8398L110.97 10.8298L114.96 6.8398L115.55 6.2498C116.65 5.1398 116.65 3.35981 115.55 2.25981Z" stroke="#8A99A6" stroke-width="0.7134" stroke-miterlimit="10" stroke-linecap="round" stroke-linejoin="round"/>
<path d="M164.64 6.90991V9.97992C164.64 10.5499 164.18 11.0199 163.6 11.0199H154.72C154.15 11.0199 153.68 10.5599 153.68 9.97992V6.90991" stroke="#8A99A6" stroke-width="0.7134" stroke-miterlimit="10" stroke-linecap="round" stroke-linejoin="round"/>
<path d="M156.4 3.41992L159.16 0.659912L161.92 3.41992" stroke="#8A99A6" stroke-width="0.7134" stroke-miterlimit="10" stroke-linecap="round" stroke-linejoin="round"/>
<path d="M159.16 0.659912V7.52991" stroke="#8A99A6" stroke-width="0.7134" stroke-miterlimit="10" stroke-linecap="round" stroke-linejoin="round"/>
</svg>
