<svg width="36" height="36" viewBox="0 0 36 36" fill="none" xmlns="http://www.w3.org/2000/svg">
<circle cx="18" cy="18" r="17.25" fill="#F3F4F7" stroke="#E0E3EB" stroke-width="1.5"/>
<path d="M23.8335 26.3333C22.9168 26.3333 22.1321 26.0069 21.4793 25.3541C20.8266 24.7013 20.5002 23.9166 20.5002 23V19.25C20.5002 18.6666 20.7016 18.1736 21.1043 17.7708C21.5071 17.368 22.0002 17.1666 22.5835 17.1666C23.1668 17.1666 23.6599 17.368 24.0627 17.7708C24.4654 18.1736 24.6668 18.6666 24.6668 19.25V22.1666C24.6668 22.4027 24.5868 22.6005 24.4268 22.76C24.2674 22.92 24.0696 23 23.8335 23C23.5974 23 23.3996 22.92 23.2402 22.76C23.0802 22.6005 23.0002 22.4027 23.0002 22.1666V19.25C23.0002 19.1388 22.9585 19.0416 22.8752 18.9583C22.7918 18.875 22.6946 18.8333 22.5835 18.8333C22.4724 18.8333 22.3752 18.875 22.2918 18.9583C22.2085 19.0416 22.1668 19.1388 22.1668 19.25V23C22.1668 23.4583 22.3299 23.8508 22.656 24.1775C22.9827 24.5036 23.3752 24.6666 23.8335 24.6666C24.2918 24.6666 24.6843 24.5036 25.011 24.1775C25.3371 23.8508 25.5002 23.4583 25.5002 23V20.5C25.5002 20.2638 25.5802 20.0658 25.7402 19.9058C25.8996 19.7463 26.0974 19.6666 26.3335 19.6666C26.5696 19.6666 26.7674 19.7463 26.9268 19.9058C27.0868 20.0658 27.1668 20.2638 27.1668 20.5V23C27.1668 23.9166 26.8404 24.7013 26.1877 25.3541C25.5349 26.0069 24.7502 26.3333 23.8335 26.3333ZM10.5002 23C10.0418 23 9.64961 22.8369 9.3235 22.5108C8.99683 22.1841 8.8335 21.7916 8.8335 21.3333V11.3333C8.8335 10.875 8.99683 10.4825 9.3235 10.1558C9.64961 9.82968 10.0418 9.66663 10.5002 9.66663H23.8335C24.2918 9.66663 24.6843 9.82968 25.011 10.1558C25.3371 10.4825 25.5002 10.875 25.5002 11.3333V16.3333H22.5835C21.7779 16.3333 21.0904 16.618 20.521 17.1875C19.9516 17.7569 19.6668 18.4444 19.6668 19.25V23H10.5002ZM17.1668 17.0208C17.2363 17.0208 17.3091 17.0102 17.3852 16.9891C17.4618 16.9686 17.5349 16.9375 17.6043 16.8958L23.5002 13.2083C23.5974 13.1527 23.6774 13.0727 23.7402 12.9683C23.8024 12.8644 23.8335 12.743 23.8335 12.6041C23.8335 12.3541 23.7224 12.1527 23.5002 12C23.2779 11.8472 23.0279 11.8472 22.7502 12L17.1668 15.5L11.5835 12C11.3196 11.8333 11.0732 11.8263 10.8443 11.9791C10.6149 12.1319 10.5002 12.3402 10.5002 12.6041C10.5002 12.743 10.5313 12.8644 10.5935 12.9683C10.6563 13.0727 10.7363 13.1527 10.8335 13.2083L16.7293 16.8958C16.7988 16.9375 16.8718 16.9686 16.9485 16.9891C17.0246 17.0102 17.0974 17.0208 17.1668 17.0208Z" fill="#666666"/>
</svg>
