<svg width="36" height="36" viewBox="0 0 36 36" fill="none" xmlns="http://www.w3.org/2000/svg">
<circle cx="18" cy="18" r="17.25" fill="#F3F4F7" stroke="#E0E3EB" stroke-width="1.5"/>
<path d="M17.5041 15.8875L10.2482 23.1483C9.8935 23.5032 9.69426 23.9844 9.69434 24.4861C9.69441 24.9879 9.8938 25.469 10.2486 25.8237C10.6035 26.1785 11.0847 26.3777 11.5864 26.3776C12.0882 26.3776 12.5693 26.1782 12.9241 25.8233L20.1791 18.5625L17.5041 15.8875ZM22.0432 20.5058L21.9582 20.5C21.8072 20.5 21.6613 20.5547 21.5474 20.654C21.4336 20.7532 21.3596 20.8904 21.3391 21.04L21.3332 21.125V21.75H20.7082C20.5572 21.75 20.4113 21.8047 20.2975 21.904C20.1836 22.0032 20.1096 22.1404 20.0891 22.29L20.0832 22.375C20.0832 22.6917 20.3182 22.9533 20.6232 22.9942L20.7082 23H21.3332V23.625C21.3332 23.9417 21.5682 24.2033 21.8732 24.2442L21.9582 24.25C22.1093 24.25 22.2552 24.1953 22.369 24.096C22.4828 23.9968 22.5569 23.8596 22.5774 23.71L22.5832 23.625V23H23.2082C23.3593 23 23.5052 22.9453 23.619 22.846C23.7328 22.7468 23.8069 22.6096 23.8274 22.46L23.8332 22.375C23.8332 22.224 23.7785 22.078 23.6793 21.9642C23.58 21.8504 23.4429 21.7764 23.2932 21.7558L23.2082 21.75H22.5832V21.125C22.5832 20.974 22.5285 20.828 22.4293 20.7142C22.33 20.6004 22.1929 20.5264 22.0432 20.5058L21.9582 20.5L22.0432 20.5058ZM19.0949 14.3042L18.9816 14.4092L18.3882 15.0033L21.0632 17.6783L21.6566 17.0833C22.0079 16.7315 22.2051 16.2545 22.205 15.7573C22.2048 15.2601 22.0073 14.7833 21.6557 14.4317L21.5249 14.31C21.1865 14.0207 20.7562 13.8612 20.311 13.8602C19.8657 13.8591 19.4347 14.0165 19.0949 14.3042ZM13.7099 12.1725L13.6249 12.1667C13.4739 12.1667 13.3279 12.2214 13.2141 12.3206C13.1003 12.4199 13.0263 12.557 13.0057 12.7067L12.9999 12.7917V13.4167H12.3749C12.2239 13.4167 12.0779 13.4714 11.9641 13.5706C11.8503 13.6699 11.7763 13.807 11.7557 13.9567L11.7499 14.0417C11.7499 14.3583 11.9849 14.6192 12.2899 14.6608L12.3749 14.6667H12.9999V15.2917C12.9999 15.6083 13.2349 15.8692 13.5399 15.9108L13.6249 15.9167C13.7759 15.9167 13.9218 15.862 14.0357 15.7627C14.1495 15.6634 14.2235 15.5263 14.2441 15.3767L14.2499 15.2917V14.6667H14.8749C15.0259 14.6667 15.1718 14.612 15.2857 14.5127C15.3995 14.4134 15.4735 14.2763 15.4941 14.1267L15.4999 14.0417C15.4999 13.8906 15.4452 13.7447 15.3459 13.6309C15.2466 13.5171 15.1095 13.443 14.9599 13.4225L14.8749 13.4167H14.2499V12.7917C14.2499 12.6406 14.1952 12.4947 14.0959 12.3809C13.9966 12.2671 13.8595 12.193 13.7099 12.1725L13.6249 12.1667L13.7099 12.1725ZM23.7099 10.5058L23.6249 10.5C23.4739 10.5 23.3279 10.5547 23.2141 10.654C23.1003 10.7532 23.0263 10.8904 23.0057 11.04L22.9999 11.125V11.75H22.3749C22.2239 11.75 22.0779 11.8047 21.9641 11.904C21.8503 12.0032 21.7763 12.1404 21.7557 12.29L21.7499 12.375C21.7499 12.6917 21.9849 12.9525 22.2899 12.9942L22.3749 13H22.9999V13.625C22.9999 13.9417 23.2349 14.2025 23.5399 14.2442L23.6249 14.25C23.7759 14.25 23.9218 14.1953 24.0357 14.096C24.1495 13.9968 24.2235 13.8596 24.2441 13.71L24.2499 13.625V13H24.8749C25.0259 13 25.1718 12.9453 25.2857 12.846C25.3995 12.7468 25.4735 12.6096 25.4941 12.46L25.4999 12.375C25.4999 12.224 25.4452 12.078 25.3459 11.9642C25.2466 11.8504 25.1095 11.7764 24.9599 11.7558L24.8749 11.75H24.2499V11.125C24.2499 10.974 24.1952 10.828 24.0959 10.7142C23.9966 10.6004 23.8595 10.5264 23.7099 10.5058L23.6249 10.5L23.7099 10.5058Z" fill="#666666"/>
</svg>
