<svg width="36" height="36" viewBox="0 0 36 36" fill="none" xmlns="http://www.w3.org/2000/svg">
<circle cx="18" cy="18" r="17.25" fill="#F3F4F7" stroke="#E0E3EB" stroke-width="1.5"/>
<path d="M19.6668 9.66669H13.0002C12.5581 9.66669 12.1342 9.84228 11.8217 10.1548C11.5091 10.4674 11.3335 10.8913 11.3335 11.3334V24.6667C11.3335 25.1087 11.5091 25.5326 11.8217 25.8452C12.1342 26.1578 12.5581 26.3334 13.0002 26.3334H23.0002C23.4422 26.3334 23.8661 26.1578 24.1787 25.8452C24.4912 25.5326 24.6668 25.1087 24.6668 24.6667V14.6667L19.6668 9.66669Z" stroke="#666666" stroke-width="1.5" stroke-linecap="round" stroke-linejoin="round"/>
<path d="M19.6665 9.66669V14.6667H24.6665" stroke="#666666" stroke-width="1.5" stroke-linecap="round" stroke-linejoin="round"/>
<path d="M21.3332 18.8333H14.6665" stroke="#666666" stroke-width="1.5" stroke-linecap="round" stroke-linejoin="round"/>
<path d="M21.3332 22.1667H14.6665" stroke="#666666" stroke-width="1.5" stroke-linecap="round" stroke-linejoin="round"/>
<path d="M16.3332 15.5H15.4998H14.6665" stroke="#666666" stroke-width="1.5" stroke-linecap="round" stroke-linejoin="round"/>
</svg>
