<svg width="36" height="36" viewBox="0 0 36 36" fill="none" xmlns="http://www.w3.org/2000/svg">
<circle cx="18" cy="18" r="17.25" fill="#F3F4F7" stroke="#E0E3EB" stroke-width="1.5"/>
<path d="M28 18C28 22.8325 23.5225 26.75 18 26.75C17.0096 26.7513 16.0232 26.6227 15.0662 26.3675C14.3362 26.7375 12.66 27.4475 9.84 27.91C9.59 27.95 9.4 27.69 9.49875 27.4575C9.94125 26.4125 10.3412 25.02 10.4613 23.75C8.93 22.2125 8 20.2 8 18C8 13.1675 12.4775 9.25 18 9.25C23.5225 9.25 28 13.1675 28 18ZM16.9925 16.4575C16.9101 16.3345 16.815 16.2206 16.7087 16.1175C16.5417 15.9455 16.3425 15.8079 16.1225 15.7125L16.1125 15.7075C15.8165 15.57 15.4939 15.4992 15.1675 15.5C13.97 15.5 13 16.4325 13 17.5837C13 18.7337 13.97 19.6663 15.1675 19.6663C15.5963 19.6663 15.995 19.5475 16.3313 19.3412C16.16 19.8275 15.8438 20.3463 15.3187 20.8663C15.2693 20.9145 15.2303 20.9724 15.204 21.0363C15.1778 21.1003 15.1649 21.1689 15.1662 21.238C15.1675 21.3071 15.1829 21.3752 15.2115 21.4381C15.2401 21.501 15.2813 21.5574 15.3325 21.6038C15.5488 21.8038 15.8913 21.7975 16.1 21.5913C17.7675 19.93 17.8125 18.1438 17.2762 16.9587C17.1975 16.7836 17.1025 16.6162 16.9925 16.4588V16.4575ZM21.75 19.3412C21.58 19.8275 21.2625 20.3463 20.7375 20.8663C20.6881 20.9146 20.6492 20.9726 20.623 21.0365C20.5969 21.1005 20.5842 21.1692 20.5856 21.2382C20.587 21.3073 20.6025 21.3754 20.6312 21.4383C20.6599 21.5011 20.7012 21.5574 20.7525 21.6038C20.9675 21.8038 21.31 21.7975 21.5187 21.5913C23.1862 19.93 23.2312 18.1438 22.6962 16.9587C22.6171 16.7836 22.5216 16.6162 22.4113 16.4588C22.3289 16.3353 22.2338 16.2209 22.1275 16.1175C21.9605 15.9454 21.7613 15.8078 21.5413 15.7125L21.5312 15.7075C21.2356 15.5702 20.9135 15.4994 20.5875 15.5C19.3912 15.5 18.42 16.4325 18.42 17.5837C18.42 18.7337 19.3912 19.6663 20.5875 19.6663C21.0162 19.6663 21.415 19.5475 21.7513 19.3412H21.75Z" fill="#666666"/>
</svg>
