<svg width="36" height="36" viewBox="0 0 36 36" fill="none" xmlns="http://www.w3.org/2000/svg">
<circle cx="18" cy="18" r="17.25" fill="#F3F4F7" stroke="#E0E3EB" stroke-width="1.5"/>
<path d="M18.8332 12.1667C20.6748 12.1667 22.1665 13.6584 22.1665 15.5C22.1665 16.75 21.4998 17.8084 20.4998 18.3834V17.3667C21.0082 16.9084 21.3332 16.2417 21.3332 15.5C21.3332 14.1167 20.2165 13 18.8332 13C17.4498 13 16.3332 14.1167 16.3332 15.5C16.3332 16.2417 16.6582 16.9084 17.1665 17.3667V18.3834C16.1665 17.8084 15.4998 16.75 15.4998 15.5C15.4998 13.6584 16.9915 12.1667 18.8332 12.1667ZM24.6665 25.0834C24.6415 25.7667 24.0998 26.3084 23.4165 26.3334H18.8332C18.5165 26.3334 18.2165 26.2084 17.9998 25.975L14.6665 22.475L15.2832 21.8334C15.4415 21.6584 15.6665 21.5667 15.9165 21.5667H16.0832L17.9998 23V15.5C17.9998 15.0417 18.3748 14.6667 18.8332 14.6667C19.2915 14.6667 19.6665 15.0417 19.6665 15.5V19.225L20.6748 19.3334L23.9582 21.1584C24.3998 21.3584 24.6665 21.8 24.6665 22.2834V25.0834ZM24.6665 9.66669H11.3332C10.4165 9.66669 9.6665 10.4167 9.6665 11.3334V18C9.6665 18.442 9.8421 18.866 10.1547 19.1785C10.4672 19.4911 10.8911 19.6667 11.3332 19.6667H14.6665V18H11.3332V11.3334H24.6665V18H22.9998V19.6667H24.6665V19.6334L24.6998 19.6667C25.6082 19.6667 26.3332 18.9084 26.3332 18V11.3334C26.3332 10.8913 26.1576 10.4674 25.845 10.1548C25.5325 9.84228 25.1085 9.66669 24.6665 9.66669Z" fill="#666666"/>
</svg>
