<svg width="36" height="36" viewBox="0 0 36 36" fill="none" xmlns="http://www.w3.org/2000/svg">
<circle cx="18" cy="18" r="17.25" fill="#F3F4F7" stroke="#E0E3EB" stroke-width="1.5"/>
<path d="M25.45 22.5499H24.525C24.475 22.9833 24.1917 23.5249 23.4833 23.5249C22.8333 23.5249 22.3667 23.0749 21.9167 22.3916C22.6598 21.8235 23.2605 21.0903 23.6712 20.25C24.082 19.4096 24.2916 18.4852 24.2833 17.5499C24.2833 13.8333 21.2167 11.3333 18.0083 11.3333C14.8417 11.3333 11.75 13.8583 11.75 17.5583C11.75 21.2249 14.8417 23.7499 18.0083 23.7499C18.5583 23.7499 19.1083 23.6749 19.6333 23.5333C20.25 24.5916 21.075 25.4999 22.6333 25.4999C25.2167 25.4999 25.5083 23.1166 25.45 22.5499ZM20.9083 20.7333C20.3 19.8083 19.525 19.0833 18.025 19.0833C17.0583 19.0833 16.3083 19.3999 15.8417 19.7999L16.225 20.5666C16.425 20.4749 16.6333 20.4416 16.85 20.4416C17.975 20.4416 18.55 21.4166 19.0417 22.3833C18.725 22.4749 18.3833 22.5166 18.0083 22.5166C15.6333 22.5166 14.6083 20.8416 14.6083 17.5583C14.6083 14.2583 15.6333 12.5666 18.0083 12.5666C20.4167 12.5666 21.45 14.2583 21.45 17.5583C21.4417 18.8749 21.275 19.9416 20.9083 20.7333Z" fill="#666666"/>
</svg>
