<svg width="36" height="36" viewBox="0 0 36 36" fill="none" xmlns="http://www.w3.org/2000/svg">
<circle cx="18" cy="18" r="17.25" fill="#F3F4F7" stroke="#E0E3EB" stroke-width="1.5"/>
<path d="M12.375 18.625C12.375 18.7908 12.3092 18.9497 12.1919 19.0669C12.0747 19.1842 11.9158 19.25 11.75 19.25H9.875C9.70924 19.25 9.55027 19.1842 9.43306 19.0669C9.31585 18.9497 9.25 18.7908 9.25 18.625C9.25 18.4592 9.31585 18.3003 9.43306 18.1831C9.55027 18.0658 9.70924 18 9.875 18H10.5V13H9.875C9.70924 13 9.55027 12.9342 9.43306 12.8169C9.31585 12.6997 9.25 12.5408 9.25 12.375C9.25 12.2092 9.31585 12.0503 9.43306 11.9331C9.55027 11.8158 9.70924 11.75 9.875 11.75H11.125C11.2315 11.7501 11.3362 11.7775 11.4292 11.8294C11.5222 11.8814 11.6003 11.9562 11.6562 12.0469L14.25 16.1953L16.8437 12.0469C16.8997 11.9562 16.9778 11.8814 17.0708 11.8294C17.1638 11.7775 17.2685 11.7501 17.375 11.75H18.625C18.7908 11.75 18.9497 11.8158 19.0669 11.9331C19.1842 12.0503 19.25 12.2092 19.25 12.375C19.25 12.5408 19.1842 12.6997 19.0669 12.8169C18.9497 12.9342 18.7908 13 18.625 13H18V18H18.625C18.7908 18 18.9497 18.0658 19.0669 18.1831C19.1842 18.3003 19.25 18.4592 19.25 18.625C19.25 18.7908 19.1842 18.9497 19.0669 19.0669C18.9497 19.1842 18.7908 19.25 18.625 19.25H16.75C16.5842 19.25 16.4253 19.1842 16.3081 19.0669C16.1908 18.9497 16.125 18.7908 16.125 18.625C16.125 18.4592 16.1908 18.3003 16.3081 18.1831C16.4253 18.0658 16.5842 18 16.75 18V14.5547L14.7813 17.7031C14.7252 17.7936 14.647 17.8682 14.554 17.92C14.461 17.9717 14.3564 17.9989 14.25 17.9989C14.1436 17.9989 14.039 17.9717 13.946 17.92C13.853 17.8682 13.7748 17.7936 13.7187 17.7031L11.75 14.5547V18C11.9158 18 12.0747 18.0658 12.1919 18.1831C12.3092 18.3003 12.375 18.4592 12.375 18.625ZM21.125 16.75H26.75C26.9158 16.75 27.0747 16.6842 27.1919 16.5669C27.3092 16.4497 27.375 16.2908 27.375 16.125C27.375 15.9592 27.3092 15.8003 27.1919 15.6831C27.0747 15.5658 26.9158 15.5 26.75 15.5H21.125C20.9592 15.5 20.8003 15.5658 20.6831 15.6831C20.5658 15.8003 20.5 15.9592 20.5 16.125C20.5 16.2908 20.5658 16.4497 20.6831 16.5669C20.8003 16.6842 20.9592 16.75 21.125 16.75ZM26.75 18H21.125C20.9592 18 20.8003 18.0658 20.6831 18.1831C20.5658 18.3003 20.5 18.4592 20.5 18.625C20.5 18.7908 20.5658 18.9497 20.6831 19.0669C20.8003 19.1842 20.9592 19.25 21.125 19.25H26.75C26.9158 19.25 27.0747 19.1842 27.1919 19.0669C27.3092 18.9497 27.375 18.7908 27.375 18.625C27.375 18.4592 27.3092 18.3003 27.1919 18.1831C27.0747 18.0658 26.9158 18 26.75 18ZM26.75 20.5H13.625C13.4592 20.5 13.3003 20.5658 13.1831 20.6831C13.0658 20.8003 13 20.9592 13 21.125C13 21.2908 13.0658 21.4497 13.1831 21.5669C13.3003 21.6842 13.4592 21.75 13.625 21.75H26.75C26.9158 21.75 27.0747 21.6842 27.1919 21.5669C27.3092 21.4497 27.375 21.2908 27.375 21.125C27.375 20.9592 27.3092 20.8003 27.1919 20.6831C27.0747 20.5658 26.9158 20.5 26.75 20.5ZM26.75 23H13.625C13.4592 23 13.3003 23.0658 13.1831 23.1831C13.0658 23.3003 13 23.4592 13 23.625C13 23.7908 13.0658 23.9497 13.1831 24.0669C13.3003 24.1842 13.4592 24.25 13.625 24.25H26.75C26.9158 24.25 27.0747 24.1842 27.1919 24.0669C27.3092 23.9497 27.375 23.7908 27.375 23.625C27.375 23.4592 27.3092 23.3003 27.1919 23.1831C27.0747 23.0658 26.9158 23 26.75 23Z" fill="#666666"/>
</svg>
