<svg width="36" height="36" viewBox="0 0 36 36" fill="none" xmlns="http://www.w3.org/2000/svg">
<circle cx="18" cy="18" r="17.25" fill="#F3F4F7" stroke="#E0E3EB" stroke-width="1.5"/>
<g clip-path="url(#clip0_126_1566)">
<path d="M13 9.25V8H8.625C8.2798 8 8 8.2798 8 8.625V13H9.25V10.1313L15.0563 15.9375L15.9375 15.0563L10.1313 9.25H13Z" fill="#666666"/>
<path d="M27.375 8H23V9.25H25.8688L20.0625 15.0563L20.9437 15.9375L26.75 10.1313V13H28V8.625C28 8.2798 27.7202 8 27.375 8Z" fill="#666666"/>
<path d="M26.75 25.8688L20.9437 20.0625L20.0625 20.9437L25.8688 26.75H23V28H27.375C27.7202 28 28 27.7202 28 27.375V23H26.75V25.8688Z" fill="#666666"/>
<path d="M15.0563 20.0563L9.25 25.8688V23H8V27.375C8 27.7202 8.2798 28 8.625 28H13V26.75H10.1313L15.9375 20.9438L15.0563 20.0563Z" fill="#666666"/>
</g>
<defs>
<clipPath id="clip0_126_1566">
<rect width="20" height="20" fill="white" transform="translate(8 8)"/>
</clipPath>
</defs>
</svg>
