<svg width="36" height="36" viewBox="0 0 36 36" fill="none" xmlns="http://www.w3.org/2000/svg">
<circle cx="18" cy="18" r="17.25" fill="#F3F4F7" stroke="#E0E3EB" stroke-width="1.5"/>
<path d="M16.0917 16.7167H17.9575C18.1279 16.7167 18.2914 16.649 18.4119 16.5285C18.5323 16.408 18.6 16.2446 18.6 16.0742C18.6 15.9038 18.5323 15.7403 18.4119 15.6199C18.2914 15.4994 18.1279 15.4317 17.9575 15.4317H16.0917C15.9213 15.4317 15.7579 15.4994 15.6374 15.6199C15.5169 15.7403 15.4492 15.9038 15.4492 16.0742C15.4492 16.2446 15.5169 16.408 15.6374 16.5285C15.7579 16.649 15.9213 16.7167 16.0917 16.7167ZM24.19 9.66833H11.7959C11.2301 9.67053 10.6881 9.89626 10.288 10.2963C9.88796 10.6964 9.66223 11.2384 9.66003 11.8042V24.1983C9.66201 24.7643 9.88764 25.3065 10.2877 25.7067C10.6878 26.107 11.2299 26.3328 11.7959 26.335H24.19C24.7561 26.333 25.2984 26.1073 25.6987 25.707C26.099 25.3067 26.3247 24.7644 26.3267 24.1983V11.8042C26.3245 11.2382 26.0987 10.6961 25.6984 10.296C25.2982 9.89594 24.756 9.67031 24.19 9.66833ZM23.2967 17.7333L23.28 19.9625C23.2737 20.8518 22.9167 21.7026 22.2866 22.3302C21.6566 22.9577 20.8043 23.3113 19.915 23.3142H16.0484C15.1582 23.3122 14.3048 22.9586 13.6741 22.3304C13.0433 21.7022 12.6864 20.8502 12.6809 19.96V16.0475C12.6859 15.1566 13.0427 14.3039 13.6736 13.6749C14.3045 13.0459 15.1583 12.6916 16.0492 12.6892H18.4017C18.9438 12.7833 19.4582 12.9965 19.9078 13.3136C20.3574 13.6306 20.731 14.0435 21.0017 14.5225C21.1871 14.8745 21.2903 15.264 21.3034 15.6617C21.36 16.0833 21.3892 16.3958 21.5784 16.57C21.845 16.8108 22.835 16.6483 23.0309 16.8017L23.1792 16.9183L23.2709 17.1025L23.3 17.2508L23.2967 17.7333ZM19.8825 19.2858H16.0917C15.9259 19.2858 15.767 19.3517 15.6498 19.4689C15.5325 19.5861 15.4667 19.7451 15.4667 19.9108C15.4667 20.0766 15.5325 20.2356 15.6498 20.3528C15.767 20.47 15.9259 20.5358 16.0917 20.5358H19.8825C20.0483 20.5358 20.2073 20.47 20.3245 20.3528C20.4417 20.2356 20.5075 20.0766 20.5075 19.9108C20.5075 19.7451 20.4417 19.5861 20.3245 19.4689C20.2073 19.3517 20.0483 19.2858 19.8825 19.2858Z" fill="#666666"/>
</svg>
