<svg width="36" height="36" viewBox="0 0 36 36" fill="none" xmlns="http://www.w3.org/2000/svg">
<circle cx="18" cy="18" r="17.25" fill="#F3F4F7" stroke="#E0E3EB" stroke-width="1.5"/>
<path fill-rule="evenodd" clip-rule="evenodd" d="M24.3438 27.9989H15.2334C15.1293 27.9989 15.03 27.9582 14.9568 27.8849L9.61391 22.5404C9.54069 22.4672 9.5 22.3679 9.5 22.2638V10.1557C9.5 8.96764 10.4667 8.00098 11.6547 8.00098H24.3454C25.5335 8.00098 26.5002 8.96764 26.5002 10.1557V25.8458C26.4969 27.0322 25.5319 27.9989 24.3438 27.9989ZM15.3945 27.2177H24.3438C25.1006 27.2177 25.7174 26.6025 25.7174 25.8442V10.1557C25.7174 9.39893 25.1022 8.78212 24.3438 8.78212H11.6531C10.8963 8.78212 10.2796 9.39731 10.2796 10.1557V22.1043L15.3945 27.2177Z" fill="#666666"/>
<path fill-rule="evenodd" clip-rule="evenodd" d="M15.2335 27.999C15.1326 27.999 15.0317 27.9599 14.9568 27.885L9.61394 22.5421C9.50164 22.4298 9.46907 22.2622 9.52928 22.1157C9.58953 21.9693 9.7327 21.8749 9.89058 21.8749L14.0601 21.8749C14.9226 21.8749 15.6241 22.5763 15.6241 23.4389V27.6084C15.6241 27.7662 15.5297 27.9095 15.3832 27.9697C15.3344 27.9892 15.2839 27.999 15.2335 27.999ZM10.8329 22.6561L14.8429 26.666V23.4388C14.8429 23.0076 14.4914 22.6561 14.0601 22.6561H10.8329Z" fill="#666666"/>
<path fill-rule="evenodd" clip-rule="evenodd" d="M22.7327 11.22H13.2643C13.0479 11.22 12.8738 11.0459 12.8738 10.8294C12.8738 10.613 13.0479 10.4389 13.2643 10.4389L22.7327 10.4388C22.9492 10.4388 23.1233 10.613 23.1233 10.8294C23.1233 11.0458 22.9476 11.22 22.7327 11.22Z" fill="#666666"/>
<path fill-rule="evenodd" clip-rule="evenodd" d="M22.7327 14.2194H13.2643C13.0479 14.2194 12.8738 14.0453 12.8738 13.8288C12.8738 13.6124 13.0479 13.4382 13.2643 13.4382H22.7327C22.9492 13.4382 23.1233 13.6124 23.1233 13.8288C23.1233 14.0453 22.9476 14.2194 22.7327 14.2194Z" fill="#666666"/>
<path fill-rule="evenodd" clip-rule="evenodd" d="M22.7327 17.2188H13.2643C13.0479 17.2188 12.8738 17.0446 12.8738 16.8282C12.8738 16.6118 13.0479 16.4377 13.2643 16.4377L22.7327 16.4376C22.9492 16.4376 23.1233 16.6117 23.1233 16.8282C23.1233 17.0446 22.9476 17.2188 22.7327 17.2188Z" fill="#666666"/>
<path fill-rule="evenodd" clip-rule="evenodd" d="M22.7327 20.218H13.2643C13.0479 20.218 12.8738 20.0423 12.8738 19.8275C12.8738 19.6127 13.0479 19.4369 13.2643 19.4369L22.7327 19.4369C22.9492 19.4369 23.1233 19.6126 23.1233 19.8274C23.1233 20.0423 22.9476 20.218 22.7327 20.218Z" fill="#666666"/>
</svg>
