<svg width="36" height="36" viewBox="0 0 36 36" fill="none" xmlns="http://www.w3.org/2000/svg">
<circle cx="18" cy="18" r="17.25" fill="#F3F4F7" stroke="#E0E3EB" stroke-width="1.5"/>
<path d="M19.8828 16.1251C19.8828 15.9593 19.9487 15.8003 20.0659 15.6831C20.1831 15.5659 20.3421 15.5001 20.5078 15.5001H26.7578C26.9236 15.5001 27.0826 15.5659 27.1998 15.6831C27.317 15.8003 27.3828 15.9593 27.3828 16.1251C27.3828 16.2908 27.317 16.4498 27.1998 16.567C27.0826 16.6842 26.9236 16.7501 26.7578 16.7501H20.5078C20.3421 16.7501 20.1831 16.6842 20.0659 16.567C19.9487 16.4498 19.8828 16.2908 19.8828 16.1251ZM26.7578 18.0001H20.5078C20.3421 18.0001 20.1831 18.0659 20.0659 18.1831C19.9487 18.3003 19.8828 18.4593 19.8828 18.6251C19.8828 18.7908 19.9487 18.9498 20.0659 19.067C20.1831 19.1842 20.3421 19.2501 20.5078 19.2501H26.7578C26.9236 19.2501 27.0826 19.1842 27.1998 19.067C27.317 18.9498 27.3828 18.7908 27.3828 18.6251C27.3828 18.4593 27.317 18.3003 27.1998 18.1831C27.0826 18.0659 26.9236 18.0001 26.7578 18.0001ZM26.7578 20.5001H20.5078C20.3421 20.5001 20.1831 20.5659 20.0659 20.6831C19.9487 20.8003 19.8828 20.9593 19.8828 21.1251C19.8828 21.2908 19.9487 21.4498 20.0659 21.567C20.1831 21.6842 20.3421 21.7501 20.5078 21.7501H26.7578C26.9236 21.7501 27.0826 21.6842 27.1998 21.567C27.317 21.4498 27.3828 21.2908 27.3828 21.1251C27.3828 20.9593 27.317 20.8003 27.1998 20.6831C27.0826 20.5659 26.9236 20.5001 26.7578 20.5001ZM26.7578 23.0001H13.6328C13.4671 23.0001 13.3081 23.0659 13.1909 23.1831C13.0737 23.3003 13.0078 23.4593 13.0078 23.6251C13.0078 23.7908 13.0737 23.9498 13.1909 24.067C13.3081 24.1842 13.4671 24.2501 13.6328 24.2501H26.7578C26.9236 24.2501 27.0826 24.1842 27.1998 24.067C27.317 23.9498 27.3828 23.7908 27.3828 23.6251C27.3828 23.4593 27.317 23.3003 27.1998 23.1831C27.0826 23.0659 26.9236 23.0001 26.7578 23.0001ZM14.25 21.7501C13.4959 21.7517 12.7541 21.558 12.0971 21.1878C11.44 20.8177 10.89 20.2837 10.5006 19.6378C10.1112 18.992 9.89571 18.2563 9.87507 17.5024C9.85443 16.7485 10.0294 16.0022 10.3828 15.336C10.0277 15.0531 9.76943 14.6667 9.64378 14.2304C9.51814 13.7941 9.53136 13.3296 9.68161 12.9011C9.83187 12.4727 10.1117 12.1016 10.4823 11.8394C10.853 11.5771 11.296 11.4367 11.75 11.4376C11.8662 11.436 11.9803 11.4686 12.0781 11.5313L16.9063 14.5469C17.1351 14.5048 17.3401 14.379 17.4813 14.1941C17.6226 14.0092 17.69 13.7783 17.6706 13.5464C17.6511 13.3146 17.5461 13.0982 17.3759 12.9395C17.2058 12.7807 16.9827 12.6909 16.75 12.6876C16.5843 12.6876 16.4253 12.6217 16.3081 12.5045C16.1909 12.3873 16.125 12.2283 16.125 12.0626C16.125 11.8968 16.1909 11.7378 16.3081 11.6206C16.4253 11.5034 16.5843 11.4376 16.75 11.4376C17.3302 11.4376 17.8866 11.668 18.2968 12.0783C18.707 12.4885 18.9375 13.0449 18.9375 13.6251C18.9375 14.2052 18.707 14.7616 18.2968 15.1718C17.8866 15.5821 17.3302 15.8126 16.75 15.8126C16.6338 15.8141 16.5197 15.7815 16.4219 15.7188L14.0781 14.2579C13.3214 14.3018 12.6065 14.6193 12.0665 15.1512C11.5264 15.6831 11.1981 16.3931 11.1427 17.1491C11.0873 17.905 11.3085 18.6554 11.7652 19.2603C12.2218 19.8653 12.8828 20.2837 13.625 20.4376V16.9454C13.625 16.7796 13.6909 16.6206 13.8081 16.5034C13.9253 16.3862 14.0843 16.3204 14.25 16.3204C14.4158 16.3204 14.5747 16.3862 14.692 16.5034C14.8092 16.6206 14.875 16.7796 14.875 16.9454V20.4376C15.453 20.3204 15.986 20.0416 16.4119 19.6337C16.8378 19.2257 17.1393 18.7053 17.2813 18.1329C17.3218 17.9724 17.4244 17.8345 17.5665 17.7496C17.7085 17.6646 17.8785 17.6395 18.0391 17.6797C18.1182 17.6989 18.1928 17.7336 18.2585 17.7818C18.3242 17.83 18.3797 17.8907 18.4218 17.9604C18.464 18.0301 18.4919 18.1075 18.5039 18.188C18.516 18.2686 18.512 18.3507 18.4922 18.4297C18.2594 19.3785 17.7146 20.2215 16.9454 20.8236C16.1761 21.4257 15.2269 21.7519 14.25 21.7501ZM11.125 14.3204C11.5422 13.8934 12.0419 13.5558 12.5938 13.3282L11.5938 12.7032C11.3751 12.7385 11.1762 12.8509 11.0329 13.0199C10.8897 13.1889 10.8115 13.4035 10.8125 13.6251C10.812 13.7565 10.8396 13.8866 10.8935 14.0065C10.9474 14.1264 11.0264 14.2335 11.125 14.3204Z" fill="#666666"/>
</svg>
