<svg width="20" height="20" viewBox="0 0 20 20" fill="none" xmlns="http://www.w3.org/2000/svg">
<circle cx="10" cy="10" r="17.25" fill="#F3F4F7" stroke="#E0E3EB" stroke-width="1.5"/>
<path d="M4.84171 1.6665C4.02504 1.7415 3.33337 2.49984 3.33337 3.33317V16.6665C3.33337 17.5415 4.12504 18.3332 5.00004 18.3332H15C15.875 18.3332 16.6667 17.5415 16.6667 16.6665V3.33317C16.6667 2.89114 16.4911 2.46722 16.1786 2.15466C15.866 1.8421 15.4421 1.6665 15 1.6665H10V7.49984L7.91671 6.24984L5.83337 7.49984V1.6665H4.84171ZM10 10.8332H10.8334C11.0544 10.8332 11.2663 10.921 11.4226 11.0772C11.5789 11.2335 11.6667 11.4455 11.6667 11.6665V14.9998H10.8334V13.3332H10V14.9998H9.16671V11.6665C9.16671 11.4455 9.2545 11.2335 9.41079 11.0772C9.56707 10.921 9.77903 10.8332 10 10.8332ZM10 11.6665V12.4998H10.8334V11.6665H10ZM12.5 12.4998H15V13.3332L13.3334 15.8332H15V16.6665H12.5V15.8332L14.1667 13.3332H12.5V12.4998Z" fill="#666666"/>
</svg>
