<svg width="36" height="36" viewBox="0 0 36 36" fill="none" xmlns="http://www.w3.org/2000/svg">
<circle cx="18" cy="18" r="17.25" fill="#F3F4F7" stroke="#E0E3EB" stroke-width="1.5"/>
<path d="M18.0001 20.5C18.1806 20.5 18.3301 20.4408 18.4484 20.3225C18.5662 20.2047 18.6251 20.0555 18.6251 19.875V12.7916C18.6251 12.6111 18.5662 12.4619 18.4484 12.3441C18.3301 12.2258 18.1806 12.1666 18.0001 12.1666C17.8195 12.1666 17.6704 12.2258 17.5526 12.3441C17.4342 12.4619 17.3751 12.6111 17.3751 12.7916V19.875C17.3751 20.0555 17.4342 20.2047 17.5526 20.3225C17.6704 20.4408 17.8195 20.5 18.0001 20.5ZM15.7084 18.8333C15.889 18.8333 16.0384 18.7741 16.1567 18.6558C16.2745 18.538 16.3334 18.3888 16.3334 18.2083V14.4583C16.3334 14.2777 16.2745 14.1286 16.1567 14.0108C16.0384 13.8925 15.889 13.8333 15.7084 13.8333C15.5279 13.8333 15.3787 13.8925 15.2609 14.0108C15.1426 14.1286 15.0834 14.2777 15.0834 14.4583V18.2083C15.0834 18.3888 15.1426 18.538 15.2609 18.6558C15.3787 18.7741 15.5279 18.8333 15.7084 18.8333ZM13.6251 17.1666C13.8056 17.1666 13.9548 17.1075 14.0726 16.9891C14.1909 16.8713 14.2501 16.7222 14.2501 16.5416V16.125C14.2501 15.9444 14.1909 15.795 14.0726 15.6766C13.9548 15.5588 13.8056 15.5 13.6251 15.5C13.4445 15.5 13.2954 15.5588 13.1776 15.6766C13.0592 15.795 13.0001 15.9444 13.0001 16.125V16.5416C13.0001 16.7222 13.0592 16.8713 13.1776 16.9891C13.2954 17.1075 13.4445 17.1666 13.6251 17.1666ZM20.2917 18.8333C20.4723 18.8333 20.6217 18.7741 20.7401 18.6558C20.8579 18.538 20.9167 18.3888 20.9167 18.2083V14.4583C20.9167 14.2777 20.8579 14.1286 20.7401 14.0108C20.6217 13.8925 20.4723 13.8333 20.2917 13.8333C20.1112 13.8333 19.962 13.8925 19.8442 14.0108C19.7259 14.1286 19.6667 14.2777 19.6667 14.4583V18.2083C19.6667 18.3888 19.7259 18.538 19.8442 18.6558C19.962 18.7741 20.1112 18.8333 20.2917 18.8333ZM22.3751 17.1666C22.5556 17.1666 22.7051 17.1075 22.8234 16.9891C22.9412 16.8713 23.0001 16.7222 23.0001 16.5416V16.125C23.0001 15.9444 22.9412 15.795 22.8234 15.6766C22.7051 15.5588 22.5556 15.5 22.3751 15.5C22.1945 15.5 22.0451 15.5588 21.9267 15.6766C21.809 15.795 21.7501 15.9444 21.7501 16.125V16.5416C21.7501 16.7222 21.809 16.8713 21.9267 16.9891C22.0451 17.1075 22.1945 17.1666 22.3751 17.1666ZM9.66675 24.3125V11.3333C9.66675 10.875 9.83008 10.4825 10.1567 10.1558C10.4829 9.82968 10.8751 9.66663 11.3334 9.66663H24.6667C25.1251 9.66663 25.5176 9.82968 25.8442 10.1558C26.1704 10.4825 26.3334 10.875 26.3334 11.3333V21.3333C26.3334 21.7916 26.1704 22.1841 25.8442 22.5108C25.5176 22.8369 25.1251 23 24.6667 23H13.0001L11.0834 24.9166C10.8195 25.1805 10.5173 25.2394 10.1767 25.0933C9.83675 24.9477 9.66675 24.6875 9.66675 24.3125Z" fill="#666666"/>
</svg>
