<svg width="36" height="36" viewBox="0 0 36 36" fill="none" xmlns="http://www.w3.org/2000/svg">
<circle cx="18" cy="18" r="17.25" fill="#F3F4F7" stroke="#E0E3EB" stroke-width="1.5"/>
<path d="M23.25 25.5C22.425 25.5 21.7187 25.2062 21.1312 24.6187C20.5437 24.0312 20.25 23.325 20.25 22.5V19.125C20.25 18.6 20.4313 18.1562 20.7938 17.7937C21.1562 17.4312 21.6 17.25 22.125 17.25C22.65 17.25 23.0938 17.4312 23.4562 17.7937C23.8187 18.1562 24 18.6 24 19.125V21.75C24 21.9625 23.928 22.1405 23.784 22.284C23.6405 22.428 23.4625 22.5 23.25 22.5C23.0375 22.5 22.8595 22.428 22.716 22.284C22.572 22.1405 22.5 21.9625 22.5 21.75V19.125C22.5 19.025 22.4625 18.9375 22.3875 18.8625C22.3125 18.7875 22.225 18.75 22.125 18.75C22.025 18.75 21.9375 18.7875 21.8625 18.8625C21.7875 18.9375 21.75 19.025 21.75 19.125V22.5C21.75 22.9125 21.8967 23.2657 22.1903 23.5597C22.4843 23.8532 22.8375 24 23.25 24C23.6625 24 24.0157 23.8532 24.3097 23.5597C24.6033 23.2657 24.75 22.9125 24.75 22.5V20.25C24.75 20.0375 24.822 19.8592 24.966 19.7152C25.1095 19.5717 25.2875 19.5 25.5 19.5C25.7125 19.5 25.8905 19.5717 26.034 19.7152C26.178 19.8592 26.25 20.0375 26.25 20.25V22.5C26.25 23.325 25.9563 24.0312 25.3688 24.6187C24.7813 25.2062 24.075 25.5 23.25 25.5ZM11.25 22.5C10.8375 22.5 10.4845 22.3532 10.191 22.0597C9.897 21.7657 9.75 21.4125 9.75 21V12C9.75 11.5875 9.897 11.2342 10.191 10.9402C10.4845 10.6467 10.8375 10.5 11.25 10.5H23.25C23.6625 10.5 24.0157 10.6467 24.3097 10.9402C24.6033 11.2342 24.75 11.5875 24.75 12V16.5H22.125C21.4 16.5 20.7812 16.7562 20.2687 17.2687C19.7562 17.7812 19.5 18.4 19.5 19.125V22.5H11.25ZM17.25 17.1187C17.3125 17.1187 17.378 17.1092 17.4465 17.0902C17.5155 17.0717 17.5812 17.0437 17.6437 17.0062L22.95 13.6875C23.0375 13.6375 23.1095 13.5655 23.166 13.4715C23.222 13.378 23.25 13.2687 23.25 13.1437C23.25 12.9187 23.15 12.7375 22.95 12.6C22.75 12.4625 22.525 12.4625 22.275 12.6L17.25 15.75L12.225 12.6C11.9875 12.45 11.7658 12.4437 11.5598 12.5812C11.3533 12.7188 11.25 12.9062 11.25 13.1437C11.25 13.2687 11.278 13.378 11.334 13.4715C11.3905 13.5655 11.4625 13.6375 11.55 13.6875L16.8563 17.0062C16.9188 17.0437 16.9845 17.0717 17.0535 17.0902C17.122 17.1092 17.1875 17.1187 17.25 17.1187Z" fill="#666666"/>
</svg>
